solid tnut3mm
facet normal -1.0 -6.73484044484839e-013 -4.63248466158442e-029
outer loop
vertex -3.03710390170389e-012 6.74999999999649 3.00000000000132
vertex -5.63993296509579e-015 2.24999999999737 -8.01482679704548e-029
vertex -5.63993296489654e-015 2.24999999999649 2.99999999999999
endloop
endfacet
facet normal -1.0 -6.73484044484839e-013 -4.63248466158442e-029
outer loop
vertex -5.63993296509579e-015 2.24999999999737 -8.01482679704548e-029
vertex -3.03710390170389e-012 6.74999999999649 3.00000000000132
vertex -3.03710390170409e-012 6.74999999999738 1.33067168395229e-012
endloop
endfacet
facet normal 1.47809042574336e-013 -2.56012771556462e-013 1.0
outer loop
vertex 4.18164426319268 1.52871870788973 1.00000000000015
vertex 3.96617420935275 4.49999999999979 1.00000000000095
vertex 2.46617420935275 4.49999999999878 1.00000000000117
endloop
endfacet
facet normal 1.47809042574336e-013 -2.56012771556462e-013 1.0
outer loop
vertex 3.96617420935275 4.49999999999979 1.00000000000095
vertex 4.18164426319268 1.52871870788973 1.00000000000015
vertex 4.9316442631918 2.8277568135669 1.00000000000038
endloop
endfacet
facet normal 1.47809042574336e-013 -2.56012771556462e-013 1.0
outer loop
vertex 4.9316442631918 2.8277568135669 1.00000000000038
vertex 4.18164426319268 1.52871870788973 1.00000000000015
vertex 7.61258437086853 1.52871870789204 0.999999999999648
endloop
endfacet
facet normal 1.47809042574336e-013 -2.56012771556462e-013 1.0
outer loop
vertex 4.9316442631918 2.8277568135669 1.00000000000038
vertex 7.61258437086853 1.52871870789204 0.999999999999648
vertex 6.86258437086765 2.8277568135682 1.00000000000009
endloop
endfacet
facet normal 1.47809042574336e-013 -2.56012771556462e-013 1.0
outer loop
vertex 6.86258437086765 2.8277568135682 1.00000000000009
vertex 7.61258437086853 1.52871870789204 0.999999999999648
vertex 7.82805442470445 4.50000000000239 1.00000000000038
endloop
endfacet
facet normal 1.47809042574336e-013 -2.56012771556462e-013 1.0
outer loop
vertex 7.82805442470445 4.50000000000239 1.00000000000038
vertex 7.61258437086853 1.52871870789204 0.999999999999648
vertex 9.32805442470445 4.50000000000341 1.00000000000015
endloop
endfacet
facet normal 1.47809042574336e-013 -2.56012771556462e-013 1.0
outer loop
vertex 3.96617420935275 4.49999999999979 1.00000000000095
vertex 4.18164426318867 7.47128129211014 1.00000000000168
vertex 2.46617420935275 4.49999999999878 1.00000000000117
endloop
endfacet
facet normal 1.47809042574336e-013 -2.56012771556462e-013 1.0
outer loop
vertex 4.18164426318867 7.47128129211014 1.00000000000168
vertex 3.96617420935275 4.49999999999979 1.00000000000095
vertex 4.93164426318955 6.17224318643399 1.00000000000124
endloop
endfacet
facet normal 1.47809042574336e-013 -2.56012771556462e-013 1.0
outer loop
vertex 4.18164426318867 7.47128129211014 1.00000000000168
vertex 4.93164426318955 6.17224318643399 1.00000000000124
vertex 7.61258437086452 7.47128129211245 1.00000000000117
endloop
endfacet
facet normal 1.47809042574336e-013 -2.56012771556462e-013 1.0
outer loop
vertex 7.61258437086452 7.47128129211245 1.00000000000117
vertex 4.93164426318955 6.17224318643399 1.00000000000124
vertex 6.8625843708654 6.17224318643529 1.00000000000095
endloop
endfacet
facet normal 1.47809042574336e-013 -2.56012771556462e-013 1.0
outer loop
vertex 7.61258437086452 7.47128129211245 1.00000000000117
vertex 6.8625843708654 6.17224318643529 1.00000000000095
vertex 7.82805442470445 4.50000000000239 1.00000000000038
endloop
endfacet
facet normal 1.47809042574336e-013 -2.56012771556462e-013 1.0
outer loop
vertex 7.61258437086452 7.47128129211245 1.00000000000117
vertex 7.82805442470445 4.50000000000239 1.00000000000038
vertex 9.32805442470445 4.50000000000341 1.00000000000015
endloop
endfacet
facet normal -0.866025403784776 0.499999999999416 2.57119781021715e-013
outer loop
vertex 9.3280544247046 4.50000000000285 3.00000000000066
vertex 7.61258437086853 1.52871870789204 0.999999999999648
vertex 7.61258437086867 1.52871870789149 2.99999999999979
endloop
endfacet
facet normal -0.866025403784776 0.499999999999416 2.57119781021715e-013
outer loop
vertex 7.61258437086853 1.52871870789204 0.999999999999648
vertex 9.3280544247046 4.50000000000285 3.00000000000066
vertex 9.32805442470445 4.50000000000341 1.00000000000015
endloop
endfacet
facet normal -6.73008190560673e-013 1.0 2.56919307166586e-013
outer loop
vertex 4.18164426319268 1.52871870788973 1.00000000000015
vertex 7.61258437086867 1.52871870789149 2.99999999999979
vertex 7.61258437086853 1.52871870789204 0.999999999999648
endloop
endfacet
facet normal -6.73008190560673e-013 1.0 2.56919307166586e-013
outer loop
vertex 7.61258437086867 1.52871870789149 2.99999999999979
vertex 4.18164426319268 1.52871870788973 1.00000000000015
vertex 4.18164426319282 1.52871870788918 2.99999999999979
endloop
endfacet
facet normal 0.866025403784775 -0.499999999999417 -2.56947421087444e-013
outer loop
vertex 2.46617420935275 4.49999999999878 1.00000000000117
vertex 4.18164426318882 7.47128129210959 3.00000000000154
vertex 2.4661742093529 4.49999999999823 3.00000000000066
endloop
endfacet
facet normal 0.866025403784775 -0.499999999999417 -2.56947421087444e-013
outer loop
vertex 4.18164426318882 7.47128129210959 3.00000000000154
vertex 2.46617420935275 4.49999999999878 1.00000000000117
vertex 4.18164426318867 7.47128129211014 1.00000000000168
endloop
endfacet
facet normal 0.866025403784102 0.500000000000583 -3.52495810318486e-016
outer loop
vertex 4.18164426319268 1.52871870788973 1.00000000000015
vertex 2.4661742093529 4.49999999999823 3.00000000000066
vertex 4.18164426319282 1.52871870788918 2.99999999999979
endloop
endfacet
facet normal 0.866025403784102 0.500000000000583 -3.52495810318486e-016
outer loop
vertex 2.4661742093529 4.49999999999823 3.00000000000066
vertex 4.18164426319268 1.52871870788973 1.00000000000015
vertex 2.46617420935275 4.49999999999878 1.00000000000117
endloop
endfacet
facet normal 6.73618813224217e-013 -1.0 -2.56877472700083e-013
outer loop
vertex 7.61258437086467 7.4712812921119 3.00000000000154
vertex 4.18164426318867 7.47128129211014 1.00000000000168
vertex 7.61258437086452 7.47128129211245 1.00000000000117
endloop
endfacet
facet normal 6.73618813224217e-013 -1.0 -2.56877472700083e-013
outer loop
vertex 4.18164426318867 7.47128129211014 1.00000000000168
vertex 7.61258437086467 7.4712812921119 3.00000000000154
vertex 4.18164426318882 7.47128129210959 3.00000000000154
endloop
endfacet
facet normal -0.866025403784102 -0.500000000000584 -1.22055191828031e-028
outer loop
vertex 7.61258437086467 7.4712812921119 3.00000000000154
vertex 9.32805442470445 4.50000000000341 1.00000000000015
vertex 9.3280544247046 4.50000000000285 3.00000000000066
endloop
endfacet
facet normal -0.866025403784102 -0.500000000000584 -1.22055191828031e-028
outer loop
vertex 9.32805442470445 4.50000000000341 1.00000000000015
vertex 7.61258437086467 7.4712812921119 3.00000000000154
vertex 7.61258437086452 7.47128129211245 1.00000000000117
endloop
endfacet
facet normal -0.866025403784775 0.499999999999417 2.56112515817975e-013
outer loop
vertex 7.82805442470445 4.50000000000239 1.00000000000038
vertex 6.8625843708675 2.82775681356845 -1.26017252188859e-013
vertex 6.86258437086765 2.8277568135682 1.00000000000009
endloop
endfacet
facet normal -0.866025403784775 0.499999999999417 2.56112515817975e-013
outer loop
vertex 6.8625843708675 2.82775681356845 -1.26017252188859e-013
vertex 7.82805442470445 4.50000000000239 1.00000000000038
vertex 7.8280544247043 4.50000000000265 1.59504354169115e-013
endloop
endfacet
facet normal -0.866025403784102 -0.500000000000584 4.15073816385347e-029
outer loop
vertex 6.8625843708654 6.17224318643529 1.00000000000095
vertex 7.8280544247043 4.50000000000265 1.59504354169115e-013
vertex 7.82805442470445 4.50000000000239 1.00000000000038
endloop
endfacet
facet normal -0.866025403784102 -0.500000000000584 4.15073816385347e-029
outer loop
vertex 7.8280544247043 4.50000000000265 1.59504354169115e-013
vertex 6.8625843708654 6.17224318643529 1.00000000000095
vertex 6.86258437086524 6.17224318643555 7.30547566885065e-013
endloop
endfacet
facet normal 6.73614647551511e-013 -1.0 -2.56112515817975e-013
outer loop
vertex 6.8625843708654 6.17224318643529 1.00000000000095
vertex 4.9316442631894 6.17224318643425 1.01606917324304e-012
vertex 6.86258437086524 6.17224318643555 7.30547566885065e-013
endloop
endfacet
facet normal 6.73614647551511e-013 -1.0 -2.56112515817975e-013
outer loop
vertex 4.9316442631894 6.17224318643425 1.01606917324304e-012
vertex 6.8625843708654 6.17224318643529 1.00000000000095
vertex 4.93164426318955 6.17224318643399 1.00000000000124
endloop
endfacet
facet normal 0.866025403784776 -0.499999999999416 -2.56112515817975e-013
outer loop
vertex 3.9661742093526 4.50000000000005 7.30547566885065e-013
vertex 4.93164426318955 6.17224318643399 1.00000000000124
vertex 3.96617420935275 4.49999999999979 1.00000000000095
endloop
endfacet
facet normal 0.866025403784776 -0.499999999999416 -2.56112515817975e-013
outer loop
vertex 4.93164426318955 6.17224318643399 1.00000000000124
vertex 3.9661742093526 4.50000000000005 7.30547566885065e-013
vertex 4.9316442631894 6.17224318643425 1.01606917324304e-012
endloop
endfacet
facet normal 0.866025403784102 0.500000000000583 -2.07536908192674e-028
outer loop
vertex 4.93164426319165 2.82775681356715 1.59504354169115e-013
vertex 3.96617420935275 4.49999999999979 1.00000000000095
vertex 4.9316442631918 2.8277568135669 1.00000000000038
endloop
endfacet
facet normal 0.866025403784102 0.500000000000583 -2.07536908192674e-028
outer loop
vertex 3.96617420935275 4.49999999999979 1.00000000000095
vertex 4.93164426319165 2.82775681356715 1.59504354169115e-013
vertex 3.9661742093526 4.50000000000005 7.30547566885065e-013
endloop
endfacet
facet normal -6.7270189057651e-013 1.0 2.56112515817975e-013
outer loop
vertex 4.93164426319165 2.82775681356715 1.59504354169115e-013
vertex 6.86258437086765 2.8277568135682 1.00000000000009
vertex 6.8625843708675 2.82775681356845 -1.26017252188859e-013
endloop
endfacet
facet normal -6.7270189057651e-013 1.0 2.56112515817975e-013
outer loop
vertex 6.86258437086765 2.8277568135682 1.00000000000009
vertex 4.93164426319165 2.82775681356715 1.59504354169115e-013
vertex 4.9316442631918 2.8277568135669 1.00000000000038
endloop
endfacet
facet normal -6.73960532949955e-013 1.0 2.95694024821103e-013
outer loop
vertex 3.89711431702542 8.99999999999926 2.00000000000199
vertex 11.6913429510854 9.00000000000525 1.99583127802327e-012
vertex 3.89711431702542 9.0 1.99583127802327e-012
endloop
endfacet
facet normal -6.73960532949955e-013 1.0 2.95694024821103e-013
outer loop
vertex 11.6913429510854 9.00000000000525 1.99583127802327e-012
vertex 3.89711431702542 8.99999999999926 2.00000000000199
vertex 11.6913429510854 9.00000000000451 2.00000000000199
endloop
endfacet
facet normal 0.499999999999417 0.866025403784776 2.56026407477961e-013
outer loop
vertex 11.6913429510854 9.00000000000451 2.00000000000199
vertex 13.4233937586569 8.00000000000451 2.00000000000184
vertex 11.6913429510854 9.00000000000525 1.99583127802327e-012
endloop
endfacet
facet normal 0.499999999999417 0.866025403784776 2.56026407477961e-013
outer loop
vertex 11.6913429510854 9.00000000000525 1.99583127802327e-012
vertex 15.5884572681169 6.75000000000699 3.00000000000132
vertex 15.5884572681169 6.75000000000788 1.33067168395229e-012
endloop
endfacet
facet normal 0.499999999999417 0.866025403784776 2.56026407477961e-013
outer loop
vertex 15.5884572681169 6.75000000000699 3.00000000000132
vertex 11.6913429510854 9.00000000000525 1.99583127802327e-012
vertex 13.4233937586569 8.00000000000451 2.00000000000184
endloop
endfacet
facet normal 0.499999999999417 0.866025403784776 2.56026407477961e-013
outer loop
vertex 15.5884572681169 6.75000000000699 3.00000000000132
vertex 13.4233937586569 8.00000000000451 2.00000000000184
vertex 13.4233937586569 8.00000000000437 3.00000000000184
endloop
endfacet
facet normal -0.500000000000584 0.866025403784102 2.56449950870064e-013
outer loop
vertex -3.03710390170389e-012 6.74999999999649 3.00000000000132
vertex 3.89711431702542 9.0 1.99583127802327e-012
vertex -3.03710390170409e-012 6.74999999999738 1.33067168395229e-012
endloop
endfacet
facet normal -0.500000000000584 0.866025403784102 2.56449950870064e-013
outer loop
vertex 3.89711431702542 9.0 1.99583127802327e-012
vertex -3.03710390170389e-012 6.74999999999649 3.00000000000132
vertex 2.16506350945924 7.99999999999926 2.00000000000184
endloop
endfacet
facet normal -0.500000000000584 0.866025403784102 2.56449950870064e-013
outer loop
vertex 2.16506350945924 7.99999999999926 2.00000000000184
vertex -3.03710390170389e-012 6.74999999999649 3.00000000000132
vertex 2.16506350945924 7.99999999999911 3.00000000000184
endloop
endfacet
facet normal -0.500000000000584 0.866025403784102 2.56449950870064e-013
outer loop
vertex 3.89711431702542 8.99999999999926 2.00000000000199
vertex 3.89711431702542 9.0 1.99583127802327e-012
vertex 2.16506350945924 7.99999999999926 2.00000000000184
endloop
endfacet
facet normal 7.88234797712003e-026 -1.47695744523446e-013 1.0
outer loop
vertex 13.4233937586569 8.00000000000451 2.00000000000184
vertex 3.89711431702542 8.99999999999926 2.00000000000199
vertex 2.16506350945924 7.99999999999926 2.00000000000184
endloop
endfacet
facet normal 7.88234797712003e-026 -1.47695744523446e-013 1.0
outer loop
vertex 3.89711431702542 8.99999999999926 2.00000000000199
vertex 13.4233937586569 8.00000000000451 2.00000000000184
vertex 11.6913429510854 9.00000000000451 2.00000000000199
endloop
endfacet
facet normal -4.66515678390207e-013 1.0 1.47695744523446e-013
outer loop
vertex 2.16506350945924 7.99999999999911 3.00000000000184
vertex 13.4233937586569 8.00000000000451 2.00000000000184
vertex 2.16506350945924 7.99999999999926 2.00000000000184
endloop
endfacet
facet normal -4.66515678390207e-013 1.0 1.47695744523446e-013
outer loop
vertex 13.4233937586569 8.00000000000451 2.00000000000184
vertex 2.16506350945924 7.99999999999911 3.00000000000184
vertex 13.4233937586569 8.00000000000437 3.00000000000184
endloop
endfacet
facet normal -0.499999999999417 -0.866025403784775 -2.55918663983541e-013
outer loop
vertex 3.89711431703148 -7.3895693039452e-013 1.99999999999933
vertex -5.63993296509579e-015 2.24999999999737 -8.01482679704548e-029
vertex 3.89711431703148 -1.64878168119819e-016 -6.65512089881304e-013
endloop
endfacet
facet normal -0.499999999999417 -0.866025403784775 -2.55918663983541e-013
outer loop
vertex -5.63993296509579e-015 2.24999999999737 -8.01482679704548e-029
vertex 3.89711431703148 -7.3895693039452e-013 1.99999999999933
vertex 2.16506350945991 0.999999999999261 1.99999999999947
endloop
endfacet
facet normal -0.499999999999417 -0.866025403784775 -2.55918663983541e-013
outer loop
vertex -5.63993296509579e-015 2.24999999999737 -8.01482679704548e-029
vertex 2.16506350945991 0.999999999999261 1.99999999999947
vertex -5.63993296489654e-015 2.24999999999649 2.99999999999999
endloop
endfacet
facet normal -0.499999999999417 -0.866025403784775 -2.55918663983541e-013
outer loop
vertex -5.63993296489654e-015 2.24999999999649 2.99999999999999
vertex 2.16506350945991 0.999999999999261 1.99999999999947
vertex 2.16506350945991 0.999999999999113 2.99999999999947
endloop
endfacet
facet normal 1.0 6.73954038898597e-013 1.85299386463377e-028
outer loop
vertex 15.5884572681199 2.25000000000788 -8.01482679704548e-029
vertex 15.5884572681169 6.75000000000699 3.00000000000132
vertex 15.5884572681199 2.25000000000699 2.99999999999999
endloop
endfacet
facet normal 1.0 6.73954038898597e-013 1.85299386463377e-028
outer loop
vertex 15.5884572681169 6.75000000000699 3.00000000000132
vertex 15.5884572681199 2.25000000000788 -8.01482679704548e-029
vertex 15.5884572681169 6.75000000000788 1.33067168395229e-012
endloop
endfacet
facet normal 0.500000000000584 -0.866025403784102 -2.55987396902585e-013
outer loop
vertex 15.5884572681199 2.25000000000788 -8.01482679704548e-029
vertex 11.6913429510914 4.51334056212969e-012 1.99999999999933
vertex 11.6913429510914 5.25213261435609e-012 -6.65512089881304e-013
endloop
endfacet
facet normal 0.500000000000584 -0.866025403784102 -2.55987396902585e-013
outer loop
vertex 11.6913429510914 4.51334056212969e-012 1.99999999999933
vertex 15.5884572681199 2.25000000000788 -8.01482679704548e-029
vertex 13.4233937586576 1.00000000000451 1.99999999999947
endloop
endfacet
facet normal 0.500000000000584 -0.866025403784102 -2.55987396902585e-013
outer loop
vertex 13.4233937586576 1.00000000000451 1.99999999999947
vertex 15.5884572681199 2.25000000000788 -8.01482679704548e-029
vertex 15.5884572681199 2.25000000000699 2.99999999999999
endloop
endfacet
facet normal 0.500000000000584 -0.866025403784102 -2.55987396902585e-013
outer loop
vertex 13.4233937586576 1.00000000000451 1.99999999999947
vertex 15.5884572681199 2.25000000000699 2.99999999999999
vertex 13.4233937586576 1.00000000000437 2.99999999999947
endloop
endfacet
facet normal 6.73870082482855e-013 -1.0 -2.95694024821103e-013
outer loop
vertex 11.6913429510914 4.51334056212969e-012 1.99999999999933
vertex 3.89711431703148 -1.64878168119819e-016 -6.65512089881304e-013
vertex 11.6913429510914 5.25213261435609e-012 -6.65512089881304e-013
endloop
endfacet
facet normal 6.73870082482855e-013 -1.0 -2.95694024821103e-013
outer loop
vertex 3.89711431703148 -1.64878168119819e-016 -6.65512089881304e-013
vertex 11.6913429510914 4.51334056212969e-012 1.99999999999933
vertex 3.89711431703148 -7.3895693039452e-013 1.99999999999933
endloop
endfacet
facet normal 1.95344329491431e-025 -3.25627230755077e-013 1.0
outer loop
vertex 2.16506350945991 0.999999999999113 2.99999999999947
vertex 4.18164426319282 1.52871870788918 2.99999999999979
vertex 2.4661742093529 4.49999999999823 3.00000000000066
endloop
endfacet
facet normal 1.95344329491431e-025 -3.25627230755077e-013 1.0
outer loop
vertex 4.18164426319282 1.52871870788918 2.99999999999979
vertex 2.16506350945991 0.999999999999113 2.99999999999947
vertex 13.4233937586576 1.00000000000437 2.99999999999947
endloop
endfacet
facet normal 1.95344329491431e-025 -3.25627230755077e-013 1.0
outer loop
vertex 4.18164426319282 1.52871870788918 2.99999999999979
vertex 13.4233937586576 1.00000000000437 2.99999999999947
vertex 7.61258437086867 1.52871870789149 2.99999999999979
endloop
endfacet
facet normal 1.95344329491431e-025 -3.25627230755077e-013 1.0
outer loop
vertex 7.61258437086867 1.52871870789149 2.99999999999979
vertex 13.4233937586576 1.00000000000437 2.99999999999947
vertex 9.3280544247046 4.50000000000285 3.00000000000066
endloop
endfacet
facet normal 1.95344329491431e-025 -3.25627230755077e-013 1.0
outer loop
vertex 9.3280544247046 4.50000000000285 3.00000000000066
vertex 13.4233937586576 1.00000000000437 2.99999999999947
vertex 13.4233937586569 8.00000000000437 3.00000000000184
endloop
endfacet
facet normal 1.95344329491431e-025 -3.25627230755077e-013 1.0
outer loop
vertex 13.4233937586569 8.00000000000437 3.00000000000184
vertex 13.4233937586576 1.00000000000437 2.99999999999947
vertex 15.5884572681169 6.75000000000699 3.00000000000132
endloop
endfacet
facet normal 1.95344329491431e-025 -3.25627230755077e-013 1.0
outer loop
vertex 15.5884572681169 6.75000000000699 3.00000000000132
vertex 13.4233937586576 1.00000000000437 2.99999999999947
vertex 15.5884572681199 2.25000000000699 2.99999999999999
endloop
endfacet
facet normal 1.95344329491431e-025 -3.25627230755077e-013 1.0
outer loop
vertex -5.63993296489654e-015 2.24999999999649 2.99999999999999
vertex 2.16506350945924 7.99999999999911 3.00000000000184
vertex -3.03710390170389e-012 6.74999999999649 3.00000000000132
endloop
endfacet
facet normal 1.95344329491431e-025 -3.25627230755077e-013 1.0
outer loop
vertex 2.16506350945924 7.99999999999911 3.00000000000184
vertex -5.63993296489654e-015 2.24999999999649 2.99999999999999
vertex 2.16506350945991 0.999999999999113 2.99999999999947
endloop
endfacet
facet normal 1.95344329491431e-025 -3.25627230755077e-013 1.0
outer loop
vertex 2.16506350945924 7.99999999999911 3.00000000000184
vertex 2.16506350945991 0.999999999999113 2.99999999999947
vertex 2.4661742093529 4.49999999999823 3.00000000000066
endloop
endfacet
facet normal 1.95344329491431e-025 -3.25627230755077e-013 1.0
outer loop
vertex 2.16506350945924 7.99999999999911 3.00000000000184
vertex 2.4661742093529 4.49999999999823 3.00000000000066
vertex 4.18164426318882 7.47128129210959 3.00000000000154
endloop
endfacet
facet normal 1.95344329491431e-025 -3.25627230755077e-013 1.0
outer loop
vertex 2.16506350945924 7.99999999999911 3.00000000000184
vertex 4.18164426318882 7.47128129210959 3.00000000000154
vertex 13.4233937586569 8.00000000000437 3.00000000000184
endloop
endfacet
facet normal 1.95344329491431e-025 -3.25627230755077e-013 1.0
outer loop
vertex 13.4233937586569 8.00000000000437 3.00000000000184
vertex 4.18164426318882 7.47128129210959 3.00000000000154
vertex 7.61258437086467 7.4712812921119 3.00000000000154
endloop
endfacet
facet normal 1.95344329491431e-025 -3.25627230755077e-013 1.0
outer loop
vertex 13.4233937586569 8.00000000000437 3.00000000000184
vertex 7.61258437086467 7.4712812921119 3.00000000000154
vertex 9.3280544247046 4.50000000000285 3.00000000000066
endloop
endfacet
facet normal 7.88321938785251e-026 -1.47695744523446e-013 1.0
outer loop
vertex 3.89711431703148 -7.3895693039452e-013 1.99999999999933
vertex 13.4233937586576 1.00000000000451 1.99999999999947
vertex 2.16506350945991 0.999999999999261 1.99999999999947
endloop
endfacet
facet normal 7.88321938785251e-026 -1.47695744523446e-013 1.0
outer loop
vertex 13.4233937586576 1.00000000000451 1.99999999999947
vertex 3.89711431703148 -7.3895693039452e-013 1.99999999999933
vertex 11.6913429510914 4.51334056212969e-012 1.99999999999933
endloop
endfacet
facet normal 4.66578297944354e-013 -1.0 -1.47695744523446e-013
outer loop
vertex 13.4233937586576 1.00000000000437 2.99999999999947
vertex 2.16506350945991 0.999999999999261 1.99999999999947
vertex 13.4233937586576 1.00000000000451 1.99999999999947
endloop
endfacet
facet normal 4.66578297944354e-013 -1.0 -1.47695744523446e-013
outer loop
vertex 2.16506350945991 0.999999999999261 1.99999999999947
vertex 13.4233937586576 1.00000000000437 2.99999999999947
vertex 2.16506350945991 0.999999999999113 2.99999999999947
endloop
endfacet
facet normal -3.27806739276766e-015 2.93034343666788e-013 -1.0
outer loop
vertex 3.89711431702542 9.0 1.99583127802327e-012
vertex -5.63993296509579e-015 2.24999999999737 -8.01482679704548e-029
vertex -3.03710390170409e-012 6.74999999999738 1.33067168395229e-012
endloop
endfacet
facet normal -3.27806739276766e-015 2.93034343666788e-013 -1.0
outer loop
vertex -5.63993296509579e-015 2.24999999999737 -8.01482679704548e-029
vertex 3.89711431702542 9.0 1.99583127802327e-012
vertex 3.89711431703148 -1.64878168119819e-016 -6.65512089881304e-013
endloop
endfacet
facet normal -3.27806739276766e-015 2.93034343666788e-013 -1.0
outer loop
vertex 3.89711431703148 -1.64878168119819e-016 -6.65512089881304e-013
vertex 3.89711431702542 9.0 1.99583127802327e-012
vertex 3.9661742093526 4.50000000000005 7.30547566885065e-013
endloop
endfacet
facet normal -3.27806739276766e-015 2.93034343666788e-013 -1.0
outer loop
vertex 3.9661742093526 4.50000000000005 7.30547566885065e-013
vertex 3.89711431702542 9.0 1.99583127802327e-012
vertex 4.9316442631894 6.17224318643425 1.01606917324304e-012
endloop
endfacet
facet normal -3.27806739276766e-015 2.93034343666788e-013 -1.0
outer loop
vertex 4.9316442631894 6.17224318643425 1.01606917324304e-012
vertex 3.89711431702542 9.0 1.99583127802327e-012
vertex 11.6913429510854 9.00000000000525 1.99583127802327e-012
endloop
endfacet
facet normal -3.27806739276766e-015 2.93034343666788e-013 -1.0
outer loop
vertex 4.9316442631894 6.17224318643425 1.01606917324304e-012
vertex 11.6913429510854 9.00000000000525 1.99583127802327e-012
vertex 6.86258437086524 6.17224318643555 7.30547566885065e-013
endloop
endfacet
facet normal -3.27806739276766e-015 2.93034343666788e-013 -1.0
outer loop
vertex 6.86258437086524 6.17224318643555 7.30547566885065e-013
vertex 11.6913429510854 9.00000000000525 1.99583127802327e-012
vertex 7.8280544247043 4.50000000000265 1.59504354169115e-013
endloop
endfacet
facet normal -3.27806739276766e-015 2.93034343666788e-013 -1.0
outer loop
vertex 3.89711431703148 -1.64878168119819e-016 -6.65512089881304e-013
vertex 4.93164426319165 2.82775681356715 1.59504354169115e-013
vertex 11.6913429510914 5.25213261435609e-012 -6.65512089881304e-013
endloop
endfacet
facet normal -3.27806739276766e-015 2.93034343666788e-013 -1.0
outer loop
vertex 4.93164426319165 2.82775681356715 1.59504354169115e-013
vertex 3.89711431703148 -1.64878168119819e-016 -6.65512089881304e-013
vertex 3.9661742093526 4.50000000000005 7.30547566885065e-013
endloop
endfacet
facet normal -3.27806739276766e-015 2.93034343666788e-013 -1.0
outer loop
vertex 11.6913429510914 5.25213261435609e-012 -6.65512089881304e-013
vertex 4.93164426319165 2.82775681356715 1.59504354169115e-013
vertex 6.8625843708675 2.82775681356845 -1.26017252188859e-013
endloop
endfacet
facet normal -3.27806739276766e-015 2.93034343666788e-013 -1.0
outer loop
vertex 11.6913429510914 5.25213261435609e-012 -6.65512089881304e-013
vertex 6.8625843708675 2.82775681356845 -1.26017252188859e-013
vertex 7.8280544247043 4.50000000000265 1.59504354169115e-013
endloop
endfacet
facet normal -3.27806739276766e-015 2.93034343666788e-013 -1.0
outer loop
vertex 11.6913429510914 5.25213261435609e-012 -6.65512089881304e-013
vertex 7.8280544247043 4.50000000000265 1.59504354169115e-013
vertex 11.6913429510854 9.00000000000525 1.99583127802327e-012
endloop
endfacet
facet normal -3.27806739276766e-015 2.93034343666788e-013 -1.0
outer loop
vertex 11.6913429510914 5.25213261435609e-012 -6.65512089881304e-013
vertex 11.6913429510854 9.00000000000525 1.99583127802327e-012
vertex 15.5884572681169 6.75000000000788 1.33067168395229e-012
endloop
endfacet
facet normal -3.27806739276766e-015 2.93034343666788e-013 -1.0
outer loop
vertex 11.6913429510914 5.25213261435609e-012 -6.65512089881304e-013
vertex 15.5884572681169 6.75000000000788 1.33067168395229e-012
vertex 15.5884572681199 2.25000000000788 -8.01482679704548e-029
endloop
endfacet
endsolid tnut3mm
