solid Shaft Adapter
facet normal -0.730459358488953 -0.6829561666724353 0.0
  outer loop
    vertex 5.181262211082196 3.592729866675896 2.4500000000000006
    vertex 5.4242578332183715 3.2530051295391624 -3.524958103184872e-16
    vertex 5.4242578332183715 3.2530051295391624 2.4500000000000006
  endloop
endfacet
facet normal -0.8823316223240617 -0.47062820596197713 0.0
  outer loop
    vertex 5.4242578332183715 3.2530051295391624 -3.524958103184872e-16
    vertex 5.181262211082196 3.592729866675896 2.4500000000000006
    vertex 5.181262211082196 3.592729866675896 -3.524958103184872e-16
  endloop
endfacet
facet normal -0.8823316223240617 -0.47062820596197713 0.0
  outer loop
    vertex 5.4242578332183715 3.2530051295391624 2.4500000000000006
    vertex 5.571046348251449 2.8619643372241463 -3.524958103184872e-16
    vertex 5.571046348251449 2.8619643372241463 2.4500000000000006
  endloop
endfacet
facet normal -0.9740744442197352 -0.22622771076509232 0.0
  outer loop
    vertex 5.571046348251449 2.8619643372241463 -3.524958103184872e-16
    vertex 5.4242578332183715 3.2530051295391624 2.4500000000000006
    vertex 5.4242578332183715 3.2530051295391624 -3.524958103184872e-16
  endloop
endfacet
facet normal -0.9740744442197352 -0.22622771076509232 0.0
  outer loop
    vertex 5.571046348251449 2.8619643372241463 2.4500000000000006
    vertex 5.611624361461413 2.4462562735016564 -3.524958103184872e-16
    vertex 5.611624361461413 2.4462562735016564 2.4500000000000006
  endloop
endfacet
facet normal -0.9994357024759629 0.033589829061465015 0.0
  outer loop
    vertex 5.611624361461413 2.4462562735016564 -3.524958103184872e-16
    vertex 5.571046348251449 2.8619643372241463 2.4500000000000006
    vertex 5.571046348251449 2.8619643372241463 -3.524958103184872e-16
  endloop
endfacet
facet normal -0.9994357024759629 0.033589829061465015 0.0
  outer loop
    vertex 5.611624361461413 2.4462562735016564 2.4500000000000006
    vertex 5.543226548306344 2.0342107559243208 -3.524958103184872e-16
    vertex 5.543226548306344 2.0342107559243208 2.4500000000000006
  endloop
endfacet
facet normal -0.9566870692540449 0.29111827754729946 0.0
  outer loop
    vertex 5.543226548306344 2.0342107559243208 -3.524958103184872e-16
    vertex 5.611624361461413 2.4462562735016564 2.4500000000000006
    vertex 5.611624361461413 2.4462562735016564 -3.524958103184872e-16
  endloop
endfacet
facet normal -0.9566870692540449 0.29111827754729946 0.0
  outer loop
    vertex 5.543226548306344 2.0342107559243208 2.4500000000000006
    vertex 5.3705141067200275 1.65390800557762 -3.524958103184872e-16
    vertex 5.3705141067200275 1.65390800557762 2.4500000000000006
  endloop
endfacet
facet normal -0.8487417932625978 0.5288074965139867 0.0
  outer loop
    vertex 5.3705141067200275 1.65390800557762 -3.524958103184872e-16
    vertex 5.543226548306344 2.0342107559243208 2.4500000000000006
    vertex 5.543226548306344 2.0342107559243208 -3.524958103184872e-16
  endloop
endfacet
facet normal -0.8487417932625978 0.5288074965139867 0.0
  outer loop
    vertex 5.3705141067200275 1.65390800557762 2.4500000000000006
    vertex 5.105257104175768 1.3312650264176742 -3.524958103184872e-16
    vertex 5.105257104175768 1.3312650264176742 2.4500000000000006
  endloop
endfacet
facet normal -0.6829561666724353 0.7304593584889532 0.0
  outer loop
    vertex 5.105257104175768 1.3312650264176742 -3.524958103184872e-16
    vertex 5.3705141067200275 1.65390800557762 2.4500000000000006
    vertex 5.3705141067200275 1.65390800557762 -3.524958103184872e-16
  endloop
endfacet
facet normal -0.47062820596197613 0.8823316223240625 0.0
  outer loop
    vertex 4.765532367039033 1.0882694042814993 2.4500000000000006
    vertex 5.105257104175768 1.3312650264176742 -3.524958103184872e-16
    vertex 4.765532367039033 1.0882694042814993 -3.524958103184872e-16
  endloop
endfacet
facet normal -0.6829561666724353 0.7304593584889532 0.0
  outer loop
    vertex 5.105257104175768 1.3312650264176742 -3.524958103184872e-16
    vertex 4.765532367039033 1.0882694042814993 2.4500000000000006
    vertex 5.105257104175768 1.3312650264176742 2.4500000000000006
  endloop
endfacet
facet normal -0.22622771076509166 0.9740744442197352 0.0
  outer loop
    vertex 4.3744915747240185 0.9414808892484228 2.4500000000000006
    vertex 4.765532367039033 1.0882694042814993 -3.524958103184872e-16
    vertex 4.3744915747240185 0.9414808892484228 -3.524958103184872e-16
  endloop
endfacet
facet normal -0.47062820596197613 0.8823316223240625 0.0
  outer loop
    vertex 4.765532367039033 1.0882694042814993 -3.524958103184872e-16
    vertex 4.3744915747240185 0.9414808892484228 2.4500000000000006
    vertex 4.765532367039033 1.0882694042814993 2.4500000000000006
  endloop
endfacet
facet normal 0.03358982906146492 0.9994357024759629 0.0
  outer loop
    vertex 3.9587835110015277 0.9009028760384584 2.4500000000000006
    vertex 4.3744915747240185 0.9414808892484228 -3.524958103184872e-16
    vertex 3.9587835110015277 0.9009028760384584 -3.524958103184872e-16
  endloop
endfacet
facet normal -0.22622771076509166 0.9740744442197352 0.0
  outer loop
    vertex 4.3744915747240185 0.9414808892484228 -3.524958103184872e-16
    vertex 3.9587835110015277 0.9009028760384584 2.4500000000000006
    vertex 4.3744915747240185 0.9414808892484228 2.4500000000000006
  endloop
endfacet
facet normal 0.2911182775472995 0.9566870692540448 0.0
  outer loop
    vertex 3.546737993424192 0.9693006891935275 2.4500000000000006
    vertex 3.9587835110015277 0.9009028760384584 -3.524958103184872e-16
    vertex 3.546737993424192 0.9693006891935275 -3.524958103184872e-16
  endloop
endfacet
facet normal 0.03358982906146492 0.9994357024759629 0.0
  outer loop
    vertex 3.9587835110015277 0.9009028760384584 -3.524958103184872e-16
    vertex 3.546737993424192 0.9693006891935275 2.4500000000000006
    vertex 3.9587835110015277 0.9009028760384584 2.4500000000000006
  endloop
endfacet
facet normal 0.5288074965139867 0.8487417932625978 0.0
  outer loop
    vertex 3.1664352430774922 1.1420131307798431 2.4500000000000006
    vertex 3.546737993424192 0.9693006891935275 -3.524958103184872e-16
    vertex 3.1664352430774922 1.1420131307798431 -3.524958103184872e-16
  endloop
endfacet
facet normal 0.2911182775472995 0.9566870692540448 0.0
  outer loop
    vertex 3.546737993424192 0.9693006891935275 -3.524958103184872e-16
    vertex 3.1664352430774922 1.1420131307798431 2.4500000000000006
    vertex 3.546737993424192 0.9693006891935275 2.4500000000000006
  endloop
endfacet
facet normal 0.7304593584889528 0.6829561666724357 0.0
  outer loop
    vertex 2.8437922639175466 1.4072701333241022 2.4500000000000006
    vertex 3.1664352430774922 1.1420131307798431 -3.524958103184872e-16
    vertex 2.8437922639175466 1.4072701333241022 -3.524958103184872e-16
  endloop
endfacet
facet normal 0.5288074965139867 0.8487417932625978 0.0
  outer loop
    vertex 3.1664352430774922 1.1420131307798431 -3.524958103184872e-16
    vertex 2.8437922639175466 1.4072701333241022 2.4500000000000006
    vertex 3.1664352430774922 1.1420131307798431 2.4500000000000006
  endloop
endfacet
facet normal 0.8823316223240625 0.470628205961976 0.0
  outer loop
    vertex 2.6007966417813715 1.7469948704608371 -3.524958103184872e-16
    vertex 2.8437922639175466 1.4072701333241022 2.4500000000000006
    vertex 2.8437922639175466 1.4072701333241022 -3.524958103184872e-16
  endloop
endfacet
facet normal 0.7304593584889528 0.6829561666724357 0.0
  outer loop
    vertex 2.8437922639175466 1.4072701333241022 2.4500000000000006
    vertex 2.6007966417813715 1.7469948704608371 -3.524958103184872e-16
    vertex 2.6007966417813715 1.7469948704608371 2.4500000000000006
  endloop
endfacet
facet normal 0.9740744442197353 0.22622771076509146 0.0
  outer loop
    vertex 2.454008126748295 2.1380356627758523 -3.524958103184872e-16
    vertex 2.6007966417813715 1.7469948704608371 2.4500000000000006
    vertex 2.6007966417813715 1.7469948704608371 -3.524958103184872e-16
  endloop
endfacet
facet normal 0.8823316223240625 0.470628205961976 0.0
  outer loop
    vertex 2.6007966417813715 1.7469948704608371 2.4500000000000006
    vertex 2.454008126748295 2.1380356627758523 -3.524958103184872e-16
    vertex 2.454008126748295 2.1380356627758523 2.4500000000000006
  endloop
endfacet
facet normal 0.9994357024759631 -0.033589829061464585 0.0
  outer loop
    vertex 2.4134301135383307 2.5537437264983427 -3.524958103184872e-16
    vertex 2.454008126748295 2.1380356627758523 2.4500000000000006
    vertex 2.454008126748295 2.1380356627758523 -3.524958103184872e-16
  endloop
endfacet
facet normal 0.9740744442197353 0.22622771076509146 0.0
  outer loop
    vertex 2.454008126748295 2.1380356627758523 2.4500000000000006
    vertex 2.4134301135383307 2.5537437264983427 -3.524958103184872e-16
    vertex 2.4134301135383307 2.5537437264983427 2.4500000000000006
  endloop
endfacet
facet normal 0.956687069254045 -0.2911182775472995 0.0
  outer loop
    vertex 2.4818279266934 2.9657892440756783 -3.524958103184872e-16
    vertex 2.4134301135383307 2.5537437264983427 2.4500000000000006
    vertex 2.4134301135383307 2.5537437264983427 -3.524958103184872e-16
  endloop
endfacet
facet normal 0.9994357024759631 -0.033589829061464585 0.0
  outer loop
    vertex 2.4134301135383307 2.5537437264983427 2.4500000000000006
    vertex 2.4818279266934 2.9657892440756783 -3.524958103184872e-16
    vertex 2.4818279266934 2.9657892440756783 2.4500000000000006
  endloop
endfacet
facet normal 0.8487417932625978 -0.5288074965139866 0.0
  outer loop
    vertex 2.6545403682797155 3.346091994422378 -3.524958103184872e-16
    vertex 2.4818279266934 2.9657892440756783 2.4500000000000006
    vertex 2.4818279266934 2.9657892440756783 -3.524958103184872e-16
  endloop
endfacet
facet normal 0.956687069254045 -0.2911182775472995 0.0
  outer loop
    vertex 2.4818279266934 2.9657892440756783 2.4500000000000006
    vertex 2.6545403682797155 3.346091994422378 -3.524958103184872e-16
    vertex 2.6545403682797155 3.346091994422378 2.4500000000000006
  endloop
endfacet
facet normal 0.6829561666724355 -0.7304593584889528 0.0
  outer loop
    vertex 2.919797370823974 3.668734973582324 -3.524958103184872e-16
    vertex 2.6545403682797155 3.346091994422378 2.4500000000000006
    vertex 2.6545403682797155 3.346091994422378 -3.524958103184872e-16
  endloop
endfacet
facet normal 0.8487417932625978 -0.5288074965139866 0.0
  outer loop
    vertex 2.6545403682797155 3.346091994422378 2.4500000000000006
    vertex 2.919797370823974 3.668734973582324 -3.524958103184872e-16
    vertex 2.919797370823974 3.668734973582324 2.4500000000000006
  endloop
endfacet
facet normal 0.4706282059619763 -0.8823316223240623 0.0
  outer loop
    vertex 3.2595221079607097 3.911730595718499 2.4500000000000006
    vertex 2.919797370823974 3.668734973582324 -3.524958103184872e-16
    vertex 3.2595221079607097 3.911730595718499 -3.524958103184872e-16
  endloop
endfacet
facet normal 0.6829561666724355 -0.7304593584889528 0.0
  outer loop
    vertex 2.919797370823974 3.668734973582324 -3.524958103184872e-16
    vertex 3.2595221079607097 3.911730595718499 2.4500000000000006
    vertex 2.919797370823974 3.668734973582324 2.4500000000000006
  endloop
endfacet
facet normal 0.22622771076509296 -0.9740744442197349 0.0
  outer loop
    vertex 3.650562900275724 4.0585191107515755 2.4500000000000006
    vertex 3.2595221079607097 3.911730595718499 -3.524958103184872e-16
    vertex 3.650562900275724 4.0585191107515755 -3.524958103184872e-16
  endloop
endfacet
facet normal 0.4706282059619763 -0.8823316223240623 0.0
  outer loop
    vertex 3.2595221079607097 3.911730595718499 -3.524958103184872e-16
    vertex 3.650562900275724 4.0585191107515755 2.4500000000000006
    vertex 3.2595221079607097 3.911730595718499 2.4500000000000006
  endloop
endfacet
facet normal -0.033589829061464314 -0.999435702475963 0.0
  outer loop
    vertex 4.066270963998215 4.099097123961541 2.4500000000000006
    vertex 3.650562900275724 4.0585191107515755 -3.524958103184872e-16
    vertex 4.066270963998215 4.099097123961541 -3.524958103184872e-16
  endloop
endfacet
facet normal 0.22622771076509296 -0.9740744442197349 0.0
  outer loop
    vertex 3.650562900275724 4.0585191107515755 -3.524958103184872e-16
    vertex 4.066270963998215 4.099097123961541 2.4500000000000006
    vertex 3.650562900275724 4.0585191107515755 2.4500000000000006
  endloop
endfacet
facet normal -0.29111827754729963 -0.9566870692540448 0.0
  outer loop
    vertex 4.4783164815755505 4.0306993108064715 2.4500000000000006
    vertex 4.066270963998215 4.099097123961541 -3.524958103184872e-16
    vertex 4.4783164815755505 4.0306993108064715 -3.524958103184872e-16
  endloop
endfacet
facet normal -0.033589829061464314 -0.999435702475963 0.0
  outer loop
    vertex 4.066270963998215 4.099097123961541 -3.524958103184872e-16
    vertex 4.4783164815755505 4.0306993108064715 2.4500000000000006
    vertex 4.066270963998215 4.099097123961541 2.4500000000000006
  endloop
endfacet
facet normal -0.5288074965139873 -0.8487417932625972 0.0
  outer loop
    vertex 4.858619231922251 3.8579868692201558 2.4500000000000006
    vertex 4.4783164815755505 4.0306993108064715 -3.524958103184872e-16
    vertex 4.858619231922251 3.8579868692201558 -3.524958103184872e-16
  endloop
endfacet
facet normal -0.29111827754729963 -0.9566870692540448 0.0
  outer loop
    vertex 4.4783164815755505 4.0306993108064715 -3.524958103184872e-16
    vertex 4.858619231922251 3.8579868692201558 2.4500000000000006
    vertex 4.4783164815755505 4.0306993108064715 2.4500000000000006
  endloop
endfacet
facet normal -0.730459358488953 -0.6829561666724353 0.0
  outer loop
    vertex 5.181262211082196 3.592729866675896 2.4500000000000006
    vertex 4.858619231922251 3.8579868692201558 -3.524958103184872e-16
    vertex 5.181262211082196 3.592729866675896 -3.524958103184872e-16
  endloop
endfacet
facet normal -0.5288074965139873 -0.8487417932625972 0.0
  outer loop
    vertex 4.858619231922251 3.8579868692201558 -3.524958103184872e-16
    vertex 5.181262211082196 3.592729866675896 2.4500000000000006
    vertex 4.858619231922251 3.8579868692201558 2.4500000000000006
  endloop
endfacet
facet normal 0.03347287962776991 -0.9994396261552897 0.0
  outer loop
    vertex 14.232869824829924 4.099103401848463 2.4500000000000015
    vertex 13.926642703847063 4.04830781485903 3.524958103184872e-16
    vertex 14.232869824829924 4.099103401848463 3.524958103184872e-16
  endloop
endfacet
facet normal 0.16363956325821208 -0.9865201940845721 0.0
  outer loop
    vertex 13.926642703847063 4.04830781485903 3.524958103184872e-16
    vertex 14.232869824829924 4.099103401848463 2.4500000000000015
    vertex 13.926642703847063 4.04830781485903 2.4500000000000015
  endloop
endfacet
facet normal 0.8132857638649654 -0.5818644741643707 0.0
  outer loop
    vertex 12.937201962880176 3.3404134411477147 3.524958103184872e-16
    vertex 12.874783959253254 3.2531703183714873 2.4500000000000015
    vertex 12.874783959253254 3.2531703183714873 3.524958103184872e-16
  endloop
endfacet
facet normal 0.8822765456131894 -0.4707314489821752 0.0
  outer loop
    vertex 12.874783959253254 3.2531703183714873 2.4500000000000015
    vertex 12.937201962880176 3.3404134411477147 3.524958103184872e-16
    vertex 12.937201962880176 3.3404134411477147 2.4500000000000015
  endloop
endfacet
facet normal -0.6830416368703173 -0.7303794372115892 0.0
  outer loop
    vertex 15.37929305122686 3.668607099538541 2.4500000000000015
    vertex 15.4474084685866 3.5857357560811876 3.524958103184872e-16
    vertex 15.4474084685866 3.5857357560811876 2.4500000000000015
  endloop
endfacet
facet normal -0.7725317677944801 -0.6349761158880982 -0.0
  outer loop
    vertex 15.4474084685866 3.5857357560811876 3.524958103184872e-16
    vertex 15.37929305122686 3.668607099538541 2.4500000000000015
    vertex 15.37929305122686 3.668607099538541 3.524958103184872e-16
  endloop
endfacet
facet normal -0.7725317677944871 -0.6349761158880898 -0.0
  outer loop
    vertex 15.4474084685866 3.5857357560811876 2.4500000000000015
    vertex 15.644512297811023 3.345933083476975 3.524958103184872e-16
    vertex 15.644512297811023 3.345933083476975 2.4500000000000015
  endloop
endfacet
facet normal -0.8488036659854149 -0.5287081771731171 0.0
  outer loop
    vertex 15.644512297811023 3.345933083476975 3.524958103184872e-16
    vertex 15.4474084685866 3.5857357560811876 2.4500000000000015
    vertex 15.4474084685866 3.5857357560811876 3.524958103184872e-16
  endloop
endfacet
facet normal 0.5287081771731134 -0.8488036659854173 0.0
  outer loop
    vertex 13.440493348757375 3.8580858655766708 2.4500000000000015
    vertex 13.200690676153163 3.6609820363522494 3.524958103184872e-16
    vertex 13.440493348757375 3.8580858655766708 3.524958103184872e-16
  endloop
endfacet
facet normal 0.6349761158880871 -0.7725317677944894 0.0
  outer loop
    vertex 13.200690676153163 3.6609820363522494 3.524958103184872e-16
    vertex 13.440493348757375 3.8580858655766708 2.4500000000000015
    vertex 13.200690676153163 3.6609820363522494 2.4500000000000015
  endloop
endfacet
facet normal 0.4133938949611088 -0.9105522981185011 0.0
  outer loop
    vertex 13.538170486939913 3.902431624392908 2.4500000000000015
    vertex 13.440493348757375 3.8580858655766708 3.524958103184872e-16
    vertex 13.538170486939913 3.902431624392908 3.524958103184872e-16
  endloop
endfacet
facet normal 0.5287081771731134 -0.8488036659854173 0.0
  outer loop
    vertex 13.440493348757375 3.8580858655766708 3.524958103184872e-16
    vertex 13.538170486939913 3.902431624392908 2.4500000000000015
    vertex 13.440493348757375 3.8580858655766708 2.4500000000000015
  endloop
endfacet
facet normal 0.29100632859186176 -0.9567211279779942 0.0
  outer loop
    vertex 13.82081630648738 4.030753804764792 2.4500000000000015
    vertex 13.538170486939913 3.902431624392908 3.524958103184872e-16
    vertex 13.82081630648738 4.030753804764792 3.524958103184872e-16
  endloop
endfacet
facet normal 0.4133938949610914 -0.9105522981185091 0.0
  outer loop
    vertex 13.538170486939913 3.902431624392908 3.524958103184872e-16
    vertex 13.82081630648738 4.030753804764792 2.4500000000000015
    vertex 13.538170486939913 3.902431624392908 2.4500000000000015
  endloop
endfacet
facet normal 0.16363956325822918 -0.9865201940845691 0.0
  outer loop
    vertex 13.926642703847063 4.04830781485903 2.4500000000000015
    vertex 13.82081630648738 4.030753804764792 3.524958103184872e-16
    vertex 13.926642703847063 4.04830781485903 3.524958103184872e-16
  endloop
endfacet
facet normal 0.29100632859186176 -0.9567211279779942 0.0
  outer loop
    vertex 13.82081630648738 4.030753804764792 3.524958103184872e-16
    vertex 13.926642703847063 4.04830781485903 2.4500000000000015
    vertex 13.82081630648738 4.030753804764792 2.4500000000000015
  endloop
endfacet
facet normal -0.47073144898217595 -0.8822765456131888 0.0
  outer loop
    vertex 15.03959675060584 3.911642472981099 2.4500000000000015
    vertex 14.748998491012197 4.020765764739538 3.524958103184872e-16
    vertex 15.03959675060584 3.911642472981099 3.524958103184872e-16
  endloop
endfacet
facet normal -0.35154407819648636 -0.9361713310526992 -0.0
  outer loop
    vertex 14.748998491012197 4.020765764739538 3.524958103184872e-16
    vertex 15.03959675060584 3.911642472981099 2.4500000000000015
    vertex 14.748998491012197 4.020765764739538 2.4500000000000015
  endloop
endfacet
facet normal -0.9105522981185099 -0.4133938949610893 -0.0
  outer loop
    vertex 15.68885805662726 3.248255945294438 2.4500000000000015
    vertex 15.817180236999144 2.9656101257469727 3.524958103184872e-16
    vertex 15.817180236999144 2.9656101257469727 2.4500000000000015
  endloop
endfacet
facet normal -0.9567211279779938 -0.29100632859186276 0.0
  outer loop
    vertex 15.817180236999144 2.9656101257469727 3.524958103184872e-16
    vertex 15.68885805662726 3.248255945294438 2.4500000000000015
    vertex 15.68885805662726 3.248255945294438 3.524958103184872e-16
  endloop
endfacet
facet normal -0.22634169076639735 -0.9740479654621781 0.0
  outer loop
    vertex 14.648573137460602 4.0584767447394805 2.4500000000000015
    vertex 14.339633587273084 4.088669386442153 3.524958103184872e-16
    vertex 14.648573137460602 4.0584767447394805 3.524958103184872e-16
  endloop
endfacet
facet normal -0.09726653425355385 -0.995258369125476 -0.0
  outer loop
    vertex 14.339633587273084 4.088669386442153 3.524958103184872e-16
    vertex 14.648573137460602 4.0584767447394805 2.4500000000000015
    vertex 14.339633587273084 4.088669386442153 2.4500000000000015
  endloop
endfacet
facet normal -0.5818644741643677 -0.8132857638649676 -0.0
  outer loop
    vertex 15.126839873382067 3.849224469354177 2.4500000000000015
    vertex 15.03959675060584 3.911642472981099 3.524958103184872e-16
    vertex 15.126839873382067 3.849224469354177 3.524958103184872e-16
  endloop
endfacet
facet normal -0.47073144898217595 -0.8822765456131888 0.0
  outer loop
    vertex 15.03959675060584 3.911642472981099 3.524958103184872e-16
    vertex 15.126839873382067 3.849224469354177 2.4500000000000015
    vertex 15.03959675060584 3.911642472981099 2.4500000000000015
  endloop
endfacet
facet normal -0.09726653425353887 -0.9952583691254776 -0.0
  outer loop
    vertex 14.339633587273084 4.088669386442153 2.4500000000000015
    vertex 14.232869824829924 4.099103401848463 3.524958103184872e-16
    vertex 14.339633587273084 4.088669386442153 3.524958103184872e-16
  endloop
endfacet
facet normal 0.03347287962776991 -0.9994396261552897 0.0
  outer loop
    vertex 14.232869824829924 4.099103401848463 3.524958103184872e-16
    vertex 14.339633587273084 4.088669386442153 2.4500000000000015
    vertex 14.232869824829924 4.099103401848463 2.4500000000000015
  endloop
endfacet
facet normal -0.8822765456131902 0.47073144898217345 0.0
  outer loop
    vertex 15.698068905215452 1.7468296816285125 2.4500000000000015
    vertex 15.63565090158853 1.6595865588522845 3.524958103184872e-16
    vertex 15.63565090158853 1.6595865588522845 2.4500000000000015
  endloop
endfacet
facet normal -0.8132857638649676 0.5818644741643677 0.0
  outer loop
    vertex 15.63565090158853 1.6595865588522845 3.524958103184872e-16
    vertex 15.698068905215452 1.7468296816285125 2.4500000000000015
    vertex 15.698068905215452 1.7468296816285125 3.524958103184872e-16
  endloop
endfacet
facet normal -0.8132857638649551 0.581864474164385 0.0
  outer loop
    vertex 15.63565090158853 1.6595865588522845 2.4500000000000015
    vertex 15.455033531772894 1.4071333810074913 3.524958103184872e-16
    vertex 15.455033531772894 1.4071333810074913 2.4500000000000015
  endloop
endfacet
facet normal -0.730379437211591 0.6830416368703154 0.0
  outer loop
    vertex 15.455033531772894 1.4071333810074913 3.524958103184872e-16
    vertex 15.63565090158853 1.6595865588522845 2.4500000000000015
    vertex 15.63565090158853 1.6595865588522845 3.524958103184872e-16
  endloop
endfacet
facet normal -0.6349761158881017 0.7725317677944773 0.0
  outer loop
    vertex 15.372162188315539 1.3390179636477493 2.4500000000000015
    vertex 15.455033531772894 1.4071333810074913 3.524958103184872e-16
    vertex 15.372162188315539 1.3390179636477493 3.524958103184872e-16
  endloop
endfacet
facet normal -0.730379437211591 0.6830416368703154 0.0
  outer loop
    vertex 15.455033531772894 1.4071333810074913 3.524958103184872e-16
    vertex 15.372162188315539 1.3390179636477493 2.4500000000000015
    vertex 15.455033531772894 1.4071333810074913 2.4500000000000015
  endloop
endfacet
facet normal -0.29100632859186315 0.9567211279779937 0.0
  outer loop
    vertex 14.752036557981327 0.9692461952352073 2.4500000000000015
    vertex 15.03468237752879 1.097568375607091 3.524958103184872e-16
    vertex 14.752036557981327 0.9692461952352073 3.524958103184872e-16
  endloop
endfacet
facet normal -0.41339389496109347 0.9105522981185082 0.0
  outer loop
    vertex 15.03468237752879 1.097568375607091 3.524958103184872e-16
    vertex 14.752036557981327 0.9692461952352073 2.4500000000000015
    vertex 15.03468237752879 1.097568375607091 2.4500000000000015
  endloop
endfacet
facet normal -0.41339389496110746 0.9105522981185018 0.0
  outer loop
    vertex 15.03468237752879 1.097568375607091 2.4500000000000015
    vertex 15.132359515711329 1.1419141344233283 3.524958103184872e-16
    vertex 15.03468237752879 1.097568375607091 3.524958103184872e-16
  endloop
endfacet
facet normal -0.5287081771731146 0.8488036659854166 0.0
  outer loop
    vertex 15.132359515711329 1.1419141344233283 3.524958103184872e-16
    vertex 15.03468237752879 1.097568375607091 2.4500000000000015
    vertex 15.132359515711329 1.1419141344233283 2.4500000000000015
  endloop
endfacet
facet normal -0.5287081771731146 0.8488036659854166 0.0
  outer loop
    vertex 15.132359515711329 1.1419141344233283 2.4500000000000015
    vertex 15.372162188315539 1.3390179636477493 3.524958103184872e-16
    vertex 15.132359515711329 1.1419141344233283 3.524958103184872e-16
  endloop
endfacet
facet normal -0.6349761158880906 0.7725317677944864 0.0
  outer loop
    vertex 15.372162188315539 1.3390179636477493 3.524958103184872e-16
    vertex 15.132359515711329 1.1419141344233283 2.4500000000000015
    vertex 15.372162188315539 1.3390179636477493 2.4500000000000015
  endloop
endfacet
facet normal -0.35154407819645656 -0.9361713310527106 -0.0
  outer loop
    vertex 14.748998491012197 4.020765764739538 2.4500000000000015
    vertex 14.648573137460602 4.0584767447394805 3.524958103184872e-16
    vertex 14.748998491012197 4.020765764739538 3.524958103184872e-16
  endloop
endfacet
facet normal -0.22634169076639735 -0.9740479654621781 0.0
  outer loop
    vertex 14.648573137460602 4.0584767447394805 3.524958103184872e-16
    vertex 14.748998491012197 4.020765764739538 2.4500000000000015
    vertex 14.648573137460602 4.0584767447394805 2.4500000000000015
  endloop
endfacet
facet normal -0.8488036659854149 -0.5287081771731171 0.0
  outer loop
    vertex 15.644512297811023 3.345933083476975 2.4500000000000015
    vertex 15.68885805662726 3.248255945294438 3.524958103184872e-16
    vertex 15.68885805662726 3.248255945294438 2.4500000000000015
  endloop
endfacet
facet normal -0.9105522981184988 -0.41339389496111373 -0.0
  outer loop
    vertex 15.68885805662726 3.248255945294438 3.524958103184872e-16
    vertex 15.644512297811023 3.345933083476975 2.4500000000000015
    vertex 15.644512297811023 3.345933083476975 3.524958103184872e-16
  endloop
endfacet
facet normal -0.9567211279779938 -0.29100632859186276 0.0
  outer loop
    vertex 15.817180236999144 2.9656101257469727 2.4500000000000015
    vertex 15.834734247093383 2.859783728387289 3.524958103184872e-16
    vertex 15.834734247093383 2.859783728387289 2.4500000000000015
  endloop
endfacet
facet normal -0.9865201940845686 -0.16363956325823345 -0.0
  outer loop
    vertex 15.834734247093383 2.859783728387289 3.524958103184872e-16
    vertex 15.817180236999144 2.9656101257469727 2.4500000000000015
    vertex 15.817180236999144 2.9656101257469727 3.524958103184872e-16
  endloop
endfacet
facet normal -0.6830416368703173 -0.7303794372115892 0.0
  outer loop
    vertex 15.37929305122686 3.668607099538541 2.4500000000000015
    vertex 15.126839873382067 3.849224469354177 3.524958103184872e-16
    vertex 15.37929305122686 3.668607099538541 3.524958103184872e-16
  endloop
endfacet
facet normal -0.5818644741643857 -0.8132857638649549 -0.0
  outer loop
    vertex 15.126839873382067 3.849224469354177 3.524958103184872e-16
    vertex 15.37929305122686 3.668607099538541 2.4500000000000015
    vertex 15.126839873382067 3.849224469354177 2.4500000000000015
  endloop
endfacet
facet normal -0.9865201940845717 -0.1636395632582141 -0.0
  outer loop
    vertex 15.834734247093383 2.859783728387289 2.4500000000000015
    vertex 15.885529834082817 2.553556607404427 3.524958103184872e-16
    vertex 15.885529834082817 2.553556607404427 2.4500000000000015
  endloop
endfacet
facet normal -0.9994396261552896 -0.033472879627770756 0.0
  outer loop
    vertex 15.885529834082817 2.553556607404427 3.524958103184872e-16
    vertex 15.834734247093383 2.859783728387289 2.4500000000000015
    vertex 15.834734247093383 2.859783728387289 3.524958103184872e-16
  endloop
endfacet
facet normal -0.9994396261552896 -0.033472879627770756 0.0
  outer loop
    vertex 15.885529834082817 2.553556607404427 2.4500000000000015
    vertex 15.875095818676506 2.4467928449612684 3.524958103184872e-16
    vertex 15.875095818676506 2.4467928449612684 2.4500000000000015
  endloop
endfacet
facet normal -0.9952583691254776 0.0972665342535392 0.0
  outer loop
    vertex 15.875095818676506 2.4467928449612684 3.524958103184872e-16
    vertex 15.885529834082817 2.553556607404427 2.4500000000000015
    vertex 15.885529834082817 2.553556607404427 3.524958103184872e-16
  endloop
endfacet
facet normal -0.9952583691254765 0.09726653425354922 0.0
  outer loop
    vertex 15.875095818676506 2.4467928449612684 2.4500000000000015
    vertex 15.844903176973835 2.137853294773749 3.524958103184872e-16
    vertex 15.844903176973835 2.137853294773749 2.4500000000000015
  endloop
endfacet
facet normal -0.9740479654621752 0.22634169076640992 0.0
  outer loop
    vertex 15.844903176973835 2.137853294773749 3.524958103184872e-16
    vertex 15.875095818676506 2.4467928449612684 2.4500000000000015
    vertex 15.875095818676506 2.4467928449612684 3.524958103184872e-16
  endloop
endfacet
facet normal -0.9740479654621752 0.22634169076640992 0.0
  outer loop
    vertex 15.844903176973835 2.137853294773749 2.4500000000000015
    vertex 15.80719219697389 2.037427941222157 3.524958103184872e-16
    vertex 15.80719219697389 2.037427941222157 2.4500000000000015
  endloop
endfacet
facet normal -0.9361713310526998 0.3515440781964849 0.0
  outer loop
    vertex 15.80719219697389 2.037427941222157 3.524958103184872e-16
    vertex 15.844903176973835 2.137853294773749 2.4500000000000015
    vertex 15.844903176973835 2.137853294773749 3.524958103184872e-16
  endloop
endfacet
facet normal -0.9361713310527013 0.3515440781964809 0.0
  outer loop
    vertex 15.80719219697389 2.037427941222157 2.4500000000000015
    vertex 15.698068905215452 1.7468296816285125 3.524958103184872e-16
    vertex 15.698068905215452 1.7468296816285125 2.4500000000000015
  endloop
endfacet
facet normal -0.8822765456131902 0.47073144898217345 0.0
  outer loop
    vertex 15.698068905215452 1.7468296816285125 3.524958103184872e-16
    vertex 15.80719219697389 2.037427941222157 2.4500000000000015
    vertex 15.80719219697389 2.037427941222157 3.524958103184872e-16
  endloop
endfacet
facet normal -0.16363956325822973 0.9865201940845691 0.0
  outer loop
    vertex 14.646210160621642 0.9516921851409686 2.4500000000000015
    vertex 14.752036557981327 0.9692461952352073 3.524958103184872e-16
    vertex 14.646210160621642 0.9516921851409686 3.524958103184872e-16
  endloop
endfacet
facet normal -0.29100632859186315 0.9567211279779937 0.0
  outer loop
    vertex 14.752036557981327 0.9692461952352073 3.524958103184872e-16
    vertex 14.646210160621642 0.9516921851409686 2.4500000000000015
    vertex 14.752036557981327 0.9692461952352073 2.4500000000000015
  endloop
endfacet
facet normal -0.033472879627770985 0.9994396261552896 0.0
  outer loop
    vertex 14.33998303963878 0.9008965981515361 2.4500000000000015
    vertex 14.646210160621642 0.9516921851409686 3.524958103184872e-16
    vertex 14.33998303963878 0.9008965981515361 3.524958103184872e-16
  endloop
endfacet
facet normal -0.16363956325821097 0.9865201940845723 0.0
  outer loop
    vertex 14.646210160621642 0.9516921851409686 3.524958103184872e-16
    vertex 14.33998303963878 0.9008965981515361 2.4500000000000015
    vertex 14.646210160621642 0.9516921851409686 2.4500000000000015
  endloop
endfacet
facet normal 0.09726653425353561 0.9952583691254778 0.0
  outer loop
    vertex 14.233219277195621 0.9113306135578458 2.4500000000000015
    vertex 14.33998303963878 0.9008965981515361 3.524958103184872e-16
    vertex 14.233219277195621 0.9113306135578458 3.524958103184872e-16
  endloop
endfacet
facet normal -0.033472879627770985 0.9994396261552896 0.0
  outer loop
    vertex 14.33998303963878 0.9008965981515361 3.524958103184872e-16
    vertex 14.233219277195621 0.9113306135578458 2.4500000000000015
    vertex 14.33998303963878 0.9008965981515361 2.4500000000000015
  endloop
endfacet
facet normal 0.22634169076639982 0.9740479654621775 0.0
  outer loop
    vertex 13.924279727008102 0.941523255260518 2.4500000000000015
    vertex 14.233219277195621 0.9113306135578458 3.524958103184872e-16
    vertex 13.924279727008102 0.941523255260518 3.524958103184872e-16
  endloop
endfacet
facet normal 0.09726653425355271 0.995258369125476 0.0
  outer loop
    vertex 14.233219277195621 0.9113306135578458 3.524958103184872e-16
    vertex 13.924279727008102 0.941523255260518 2.4500000000000015
    vertex 14.233219277195621 0.9113306135578458 2.4500000000000015
  endloop
endfacet
facet normal 0.3515440781964623 0.9361713310527083 0.0
  outer loop
    vertex 13.82385437345651 0.9792342352604613 2.4500000000000015
    vertex 13.924279727008102 0.941523255260518 3.524958103184872e-16
    vertex 13.82385437345651 0.9792342352604613 3.524958103184872e-16
  endloop
endfacet
facet normal 0.22634169076639982 0.9740479654621775 0.0
  outer loop
    vertex 13.924279727008102 0.941523255260518 3.524958103184872e-16
    vertex 13.82385437345651 0.9792342352604613 2.4500000000000015
    vertex 13.924279727008102 0.941523255260518 2.4500000000000015
  endloop
endfacet
facet normal 0.47073144898217606 0.8822765456131886 0.0
  outer loop
    vertex 13.533256113862866 1.0883575270189005 2.4500000000000015
    vertex 13.82385437345651 0.9792342352604613 3.524958103184872e-16
    vertex 13.533256113862866 1.0883575270189005 3.524958103184872e-16
  endloop
endfacet
facet normal 0.3515440781964854 0.9361713310526998 0.0
  outer loop
    vertex 13.82385437345651 0.9792342352604613 3.524958103184872e-16
    vertex 13.533256113862866 1.0883575270189005 2.4500000000000015
    vertex 13.82385437345651 0.9792342352604613 2.4500000000000015
  endloop
endfacet
facet normal 0.5818644741643688 0.813285763864967 0.0
  outer loop
    vertex 13.446012991086636 1.1507755306458225 2.4500000000000015
    vertex 13.533256113862866 1.0883575270189005 3.524958103184872e-16
    vertex 13.446012991086636 1.1507755306458225 3.524958103184872e-16
  endloop
endfacet
facet normal 0.47073144898217606 0.8822765456131886 0.0
  outer loop
    vertex 13.533256113862866 1.0883575270189005 3.524958103184872e-16
    vertex 13.446012991086636 1.1507755306458225 2.4500000000000015
    vertex 13.533256113862866 1.0883575270189005 2.4500000000000015
  endloop
endfacet
facet normal 0.6830416368703114 0.7303794372115947 0.0
  outer loop
    vertex 13.193559813241844 1.3313929004614573 2.4500000000000015
    vertex 13.446012991086636 1.1507755306458225 3.524958103184872e-16
    vertex 13.193559813241844 1.3313929004614573 3.524958103184872e-16
  endloop
endfacet
facet normal 0.5818644741643834 0.8132857638649564 0.0
  outer loop
    vertex 13.446012991086636 1.1507755306458225 3.524958103184872e-16
    vertex 13.193559813241844 1.3313929004614573 2.4500000000000015
    vertex 13.446012991086636 1.1507755306458225 2.4500000000000015
  endloop
endfacet
facet normal 0.7725317677944719 0.6349761158881083 0.0
  outer loop
    vertex 13.125444395882102 1.4142642439188122 3.524958103184872e-16
    vertex 13.193559813241844 1.3313929004614573 2.4500000000000015
    vertex 13.193559813241844 1.3313929004614573 3.524958103184872e-16
  endloop
endfacet
facet normal 0.6830416368703114 0.7303794372115947 0.0
  outer loop
    vertex 13.193559813241844 1.3313929004614573 2.4500000000000015
    vertex 13.125444395882102 1.4142642439188122 3.524958103184872e-16
    vertex 13.125444395882102 1.4142642439188122 2.4500000000000015
  endloop
endfacet
facet normal 0.8488036659854172 0.5287081771731134 0.0
  outer loop
    vertex 12.928340566657681 1.6540669165230242 3.524958103184872e-16
    vertex 13.125444395882102 1.4142642439188122 2.4500000000000015
    vertex 13.125444395882102 1.4142642439188122 3.524958103184872e-16
  endloop
endfacet
facet normal 0.7725317677944911 0.6349761158880849 0.0
  outer loop
    vertex 13.125444395882102 1.4142642439188122 2.4500000000000015
    vertex 12.928340566657681 1.6540669165230242 3.524958103184872e-16
    vertex 12.928340566657681 1.6540669165230242 2.4500000000000015
  endloop
endfacet
facet normal 0.9105522981185001 0.41339389496111134 0.0
  outer loop
    vertex 12.883994807841443 1.7517440547055616 3.524958103184872e-16
    vertex 12.928340566657681 1.6540669165230242 2.4500000000000015
    vertex 12.928340566657681 1.6540669165230242 3.524958103184872e-16
  endloop
endfacet
facet normal 0.8488036659854172 0.5287081771731134 0.0
  outer loop
    vertex 12.928340566657681 1.6540669165230242 2.4500000000000015
    vertex 12.883994807841443 1.7517440547055616 3.524958103184872e-16
    vertex 12.883994807841443 1.7517440547055616 2.4500000000000015
  endloop
endfacet
facet normal 0.9567211279779938 0.29100632859186276 0.0
  outer loop
    vertex 12.755672627469561 2.0343898742530273 3.524958103184872e-16
    vertex 12.883994807841443 1.7517440547055616 2.4500000000000015
    vertex 12.883994807841443 1.7517440547055616 3.524958103184872e-16
  endloop
endfacet
facet normal 0.9105522981185099 0.4133938949610893 0.0
  outer loop
    vertex 12.883994807841443 1.7517440547055616 2.4500000000000015
    vertex 12.755672627469561 2.0343898742530273 3.524958103184872e-16
    vertex 12.755672627469561 2.0343898742530273 2.4500000000000015
  endloop
endfacet
facet normal 0.9865201940845686 0.16363956325823345 0.0
  outer loop
    vertex 12.738118617375322 2.140216271612711 3.524958103184872e-16
    vertex 12.755672627469561 2.0343898742530273 2.4500000000000015
    vertex 12.755672627469561 2.0343898742530273 3.524958103184872e-16
  endloop
endfacet
facet normal 0.9567211279779938 0.29100632859186276 0.0
  outer loop
    vertex 12.755672627469561 2.0343898742530273 2.4500000000000015
    vertex 12.738118617375322 2.140216271612711 3.524958103184872e-16
    vertex 12.738118617375322 2.140216271612711 2.4500000000000015
  endloop
endfacet
facet normal 0.9994396261552896 0.03347287962777071 0.0
  outer loop
    vertex 12.687323030385889 2.4464433925955724 3.524958103184872e-16
    vertex 12.738118617375322 2.140216271612711 2.4500000000000015
    vertex 12.738118617375322 2.140216271612711 3.524958103184872e-16
  endloop
endfacet
facet normal 0.9865201940845718 0.1636395632582143 0.0
  outer loop
    vertex 12.738118617375322 2.140216271612711 2.4500000000000015
    vertex 12.687323030385889 2.4464433925955724 3.524958103184872e-16
    vertex 12.687323030385889 2.4464433925955724 2.4500000000000015
  endloop
endfacet
facet normal 0.9952583691254774 -0.0972665342535395 0.0
  outer loop
    vertex 12.697757045792198 2.5532071550387307 3.524958103184872e-16
    vertex 12.687323030385889 2.4464433925955724 2.4500000000000015
    vertex 12.687323030385889 2.4464433925955724 3.524958103184872e-16
  endloop
endfacet
facet normal 0.9994396261552896 0.03347287962777071 0.0
  outer loop
    vertex 12.687323030385889 2.4464433925955724 2.4500000000000015
    vertex 12.697757045792198 2.5532071550387307 3.524958103184872e-16
    vertex 12.697757045792198 2.5532071550387307 2.4500000000000015
  endloop
endfacet
facet normal 0.9740479654621752 -0.2263416907664098 0.0
  outer loop
    vertex 12.72794968749487 2.862146705226251 3.524958103184872e-16
    vertex 12.697757045792198 2.5532071550387307 2.4500000000000015
    vertex 12.697757045792198 2.5532071550387307 3.524958103184872e-16
  endloop
endfacet
facet normal 0.9952583691254765 -0.09726653425354902 0.0
  outer loop
    vertex 12.697757045792198 2.5532071550387307 2.4500000000000015
    vertex 12.72794968749487 2.862146705226251 3.524958103184872e-16
    vertex 12.72794968749487 2.862146705226251 2.4500000000000015
  endloop
endfacet
facet normal 0.9361713310526998 -0.3515440781964849 0.0
  outer loop
    vertex 12.765660667494815 2.962572058777843 3.524958103184872e-16
    vertex 12.72794968749487 2.862146705226251 2.4500000000000015
    vertex 12.72794968749487 2.862146705226251 3.524958103184872e-16
  endloop
endfacet
facet normal 0.9740479654621752 -0.2263416907664098 0.0
  outer loop
    vertex 12.72794968749487 2.862146705226251 2.4500000000000015
    vertex 12.765660667494815 2.962572058777843 3.524958103184872e-16
    vertex 12.765660667494815 2.962572058777843 2.4500000000000015
  endloop
endfacet
facet normal 0.8822765456131894 -0.4707314489821752 0.0
  outer loop
    vertex 12.874783959253254 3.2531703183714873 3.524958103184872e-16
    vertex 12.765660667494815 2.962572058777843 2.4500000000000015
    vertex 12.765660667494815 2.962572058777843 3.524958103184872e-16
  endloop
endfacet
facet normal 0.9361713310527013 -0.3515440781964809 0.0
  outer loop
    vertex 12.765660667494815 2.962572058777843 2.4500000000000015
    vertex 12.874783959253254 3.2531703183714873 3.524958103184872e-16
    vertex 12.874783959253254 3.2531703183714873 2.4500000000000015
  endloop
endfacet
facet normal 0.6349761158881086 -0.7725317677944716 0.0
  outer loop
    vertex 13.200690676153163 3.6609820363522494 2.4500000000000015
    vertex 13.117819332695811 3.5928666189925083 3.524958103184872e-16
    vertex 13.200690676153163 3.6609820363522494 3.524958103184872e-16
  endloop
endfacet
facet normal 0.7303794372115943 -0.6830416368703118 0.0
  outer loop
    vertex 13.117819332695811 3.5928666189925083 3.524958103184872e-16
    vertex 13.200690676153163 3.6609820363522494 2.4500000000000015
    vertex 13.117819332695811 3.5928666189925083 2.4500000000000015
  endloop
endfacet
facet normal 0.7303794372115943 -0.6830416368703118 0.0
  outer loop
    vertex 13.117819332695811 3.5928666189925083 3.524958103184872e-16
    vertex 12.937201962880176 3.3404134411477147 2.4500000000000015
    vertex 12.937201962880176 3.3404134411477147 3.524958103184872e-16
  endloop
endfacet
facet normal 0.8132857638649555 -0.5818644741643846 0.0
  outer loop
    vertex 12.937201962880176 3.3404134411477147 2.4500000000000015
    vertex 13.117819332695811 3.5928666189925083 3.524958103184872e-16
    vertex 13.117819332695811 3.5928666189925083 2.4500000000000015
  endloop
endfacet
facet normal 0.0 -1.0 0.0
  outer loop
    vertex 18.3 0.0 2.4500000000000015
    vertex 0.0 0.0 0.0
    vertex 18.3 0.0 0.0
  endloop
endfacet
facet normal 0.0 -1.0 0.0
  outer loop
    vertex 0.0 0.0 0.0
    vertex 18.3 0.0 2.4500000000000015
    vertex 9.126880625618845 0.0 1.5002324171693562
  endloop
endfacet
facet normal 0.0 -1.0 0.0
  outer loop
    vertex 9.126880625618845 0.0 1.5002324171693562
    vertex 18.3 0.0 2.4500000000000015
    vertex 9.425250147075657 0.0 1.5334260631132273
  endloop
endfacet
facet normal 0.0 -1.0 0.0
  outer loop
    vertex 9.425250147075657 0.0 1.5334260631132273
    vertex 18.3 0.0 2.4500000000000015
    vertex 9.70486182588164 0.0 1.6427123776302557
  endloop
endfacet
facet normal 0.0 -1.0 0.0
  outer loop
    vertex 9.70486182588164 0.0 1.6427123776302557
    vertex 18.3 0.0 2.4500000000000015
    vertex 9.946660588206308 0.0 1.820643678990281
  endloop
endfacet
facet normal 0.0 -1.0 0.0
  outer loop
    vertex 9.946660588206308 0.0 1.820643678990281
    vertex 18.3 0.0 2.4500000000000015
    vertex 10.13416824798859 0.0 2.0550942430509944
  endloop
endfacet
facet normal 0.0 -1.0 0.0
  outer loop
    vertex 10.13416824798859 0.0 2.0550942430509944
    vertex 18.3 0.0 2.4500000000000015
    vertex 10.254606468085377 0.0 2.3300866513195357
  endloop
endfacet
facet normal 0.0 -1.0 0.0
  outer loop
    vertex 10.254606468085377 0.0 2.3300866513195357
    vertex 18.3 0.0 2.4500000000000015
    vertex 10.272852864468703 0.0 2.4500000000000015
  endloop
endfacet
facet normal 0.0 -1.0 0.0
  outer loop
    vertex 9.126880625618845 0.0 1.5002324171693562
    vertex 0.0 0.0 2.4500000000000006
    vertex 0.0 0.0 0.0
  endloop
endfacet
facet normal 0.0 -1.0 0.0
  outer loop
    vertex 0.0 0.0 2.4500000000000006
    vertex 9.126880625618845 0.0 1.5002324171693562
    vertex 8.830086651319535 0.0 1.5453935319146241
  endloop
endfacet
facet normal 0.0 -1.0 0.0
  outer loop
    vertex 0.0 0.0 2.4500000000000006
    vertex 8.830086651319535 0.0 1.5453935319146241
    vertex 8.555094243050993 0.0 1.6658317520114114
  endloop
endfacet
facet normal 0.0 -1.0 0.0
  outer loop
    vertex 0.0 0.0 2.4500000000000006
    vertex 8.555094243050993 0.0 1.6658317520114114
    vertex 8.32064367899028 0.0 1.8533394117936923
  endloop
endfacet
facet normal 0.0 -1.0 0.0
  outer loop
    vertex 0.0 0.0 2.4500000000000006
    vertex 8.32064367899028 0.0 1.8533394117936923
    vertex 8.142712377630254 0.0 2.095138174118363
  endloop
endfacet
facet normal 0.0 -1.0 0.0
  outer loop
    vertex 0.0 0.0 2.4500000000000006
    vertex 8.142712377630254 0.0 2.095138174118363
    vertex 8.033426063113227 0.0 2.374749852924344
  endloop
endfacet
facet normal 0.0 -1.0 0.0
  outer loop
    vertex 0.0 0.0 2.4500000000000006
    vertex 8.033426063113227 0.0 2.374749852924344
    vertex 8.025054474999743 0.0 2.450000000000001
  endloop
endfacet
facet normal 1.0 0.0 0.0
  outer loop
    vertex 18.3 5.0 0.0
    vertex 18.3 0.0 2.4500000000000015
    vertex 18.3 0.0 0.0
  endloop
endfacet
facet normal 1.0 0.0 0.0
  outer loop
    vertex 18.3 0.0 2.4500000000000015
    vertex 18.3 5.0 0.0
    vertex 18.3 4.999999999999999 2.4500000000000015
  endloop
endfacet
facet normal -0.8557984765118168 0.0 0.5173093538687016
  outer loop
    vertex 10.13416824798859 4.999999999999999 2.0550942430509944
    vertex 9.946660588206308 0.0 1.820643678990281
    vertex 10.13416824798859 0.0 2.0550942430509944
  endloop
endfacet
facet normal -0.6927483375707035 0.0 0.7211794095736695
  outer loop
    vertex 9.946660588206308 0.0 1.820643678990281
    vertex 10.13416824798859 4.999999999999999 2.0550942430509944
    vertex 9.946660588206308 4.999999999999999 1.820643678990281
  endloop
endfacet
facet normal 0.0 0.0 -1.0
  outer loop
    vertex 0.0 5.0 0.0
    vertex 2.6545403682797155 3.346091994422378 -3.524958103184872e-16
    vertex 0.0 0.0 0.0
  endloop
endfacet
facet normal 0.0 0.0 -1.0
  outer loop
    vertex 2.6545403682797155 3.346091994422378 -3.524958103184872e-16
    vertex 0.0 5.0 0.0
    vertex 2.919797370823974 3.668734973582324 -3.524958103184872e-16
  endloop
endfacet
facet normal 0.0 0.0 -1.0
  outer loop
    vertex 2.919797370823974 3.668734973582324 -3.524958103184872e-16
    vertex 0.0 5.0 0.0
    vertex 3.2595221079607097 3.911730595718499 -3.524958103184872e-16
  endloop
endfacet
facet normal 0.0 0.0 -1.0
  outer loop
    vertex 3.2595221079607097 3.911730595718499 -3.524958103184872e-16
    vertex 0.0 5.0 0.0
    vertex 3.650562900275724 4.0585191107515755 -3.524958103184872e-16
  endloop
endfacet
facet normal 0.0 0.0 -1.0
  outer loop
    vertex 3.650562900275724 4.0585191107515755 -3.524958103184872e-16
    vertex 0.0 5.0 0.0
    vertex 4.066270963998215 4.099097123961541 -3.524958103184872e-16
  endloop
endfacet
facet normal 0.0 0.0 -1.0
  outer loop
    vertex 4.066270963998215 4.099097123961541 -3.524958103184872e-16
    vertex 0.0 5.0 0.0
    vertex 18.3 5.0 0.0
  endloop
endfacet
facet normal 0.0 0.0 -1.0
  outer loop
    vertex 0.0 0.0 0.0
    vertex 2.6545403682797155 3.346091994422378 -3.524958103184872e-16
    vertex 2.4818279266934 2.9657892440756783 -3.524958103184872e-16
  endloop
endfacet
facet normal 0.0 0.0 -1.0
  outer loop
    vertex 0.0 0.0 0.0
    vertex 2.4818279266934 2.9657892440756783 -3.524958103184872e-16
    vertex 2.4134301135383307 2.5537437264983427 -3.524958103184872e-16
  endloop
endfacet
facet normal 0.0 0.0 -1.0
  outer loop
    vertex 4.066270963998215 4.099097123961541 -3.524958103184872e-16
    vertex 18.3 5.0 0.0
    vertex 4.4783164815755505 4.0306993108064715 -3.524958103184872e-16
  endloop
endfacet
facet normal 0.0 0.0 -1.0
  outer loop
    vertex 4.4783164815755505 4.0306993108064715 -3.524958103184872e-16
    vertex 18.3 5.0 0.0
    vertex 4.858619231922251 3.8579868692201558 -3.524958103184872e-16
  endloop
endfacet
facet normal 0.0 0.0 -1.0
  outer loop
    vertex 4.858619231922251 3.8579868692201558 -3.524958103184872e-16
    vertex 18.3 5.0 0.0
    vertex 5.181262211082196 3.592729866675896 -3.524958103184872e-16
  endloop
endfacet
facet normal 0.0 0.0 -1.0
  outer loop
    vertex 5.181262211082196 3.592729866675896 -3.524958103184872e-16
    vertex 18.3 5.0 0.0
    vertex 5.4242578332183715 3.2530051295391624 -3.524958103184872e-16
  endloop
endfacet
facet normal 0.0 0.0 -1.0
  outer loop
    vertex 5.4242578332183715 3.2530051295391624 -3.524958103184872e-16
    vertex 18.3 5.0 0.0
    vertex 5.571046348251449 2.8619643372241463 -3.524958103184872e-16
  endloop
endfacet
facet normal 0.0 0.0 -1.0
  outer loop
    vertex 5.571046348251449 2.8619643372241463 -3.524958103184872e-16
    vertex 18.3 5.0 0.0
    vertex 5.611624361461413 2.4462562735016564 -3.524958103184872e-16
  endloop
endfacet
facet normal 0.0 0.0 -1.0
  outer loop
    vertex 5.611624361461413 2.4462562735016564 -3.524958103184872e-16
    vertex 18.3 5.0 0.0
    vertex 13.82081630648738 4.030753804764792 3.524958103184872e-16
  endloop
endfacet
facet normal 0.0 0.0 -1.0
  outer loop
    vertex 5.611624361461413 2.4462562735016564 -3.524958103184872e-16
    vertex 13.82081630648738 4.030753804764792 3.524958103184872e-16
    vertex 13.538170486939913 3.902431624392908 3.524958103184872e-16
  endloop
endfacet
facet normal 0.0 0.0 -1.0
  outer loop
    vertex 5.611624361461413 2.4462562735016564 -3.524958103184872e-16
    vertex 13.538170486939913 3.902431624392908 3.524958103184872e-16
    vertex 13.440493348757375 3.8580858655766708 3.524958103184872e-16
  endloop
endfacet
facet normal 0.0 0.0 -1.0
  outer loop
    vertex 5.611624361461413 2.4462562735016564 -3.524958103184872e-16
    vertex 13.440493348757375 3.8580858655766708 3.524958103184872e-16
    vertex 13.200690676153163 3.6609820363522494 3.524958103184872e-16
  endloop
endfacet
facet normal 0.0 0.0 -1.0
  outer loop
    vertex 5.611624361461413 2.4462562735016564 -3.524958103184872e-16
    vertex 13.200690676153163 3.6609820363522494 3.524958103184872e-16
    vertex 13.117819332695811 3.5928666189925083 3.524958103184872e-16
  endloop
endfacet
facet normal 0.0 0.0 -1.0
  outer loop
    vertex 5.611624361461413 2.4462562735016564 -3.524958103184872e-16
    vertex 13.117819332695811 3.5928666189925083 3.524958103184872e-16
    vertex 12.937201962880176 3.3404134411477147 3.524958103184872e-16
  endloop
endfacet
facet normal 0.0 0.0 -1.0
  outer loop
    vertex 5.611624361461413 2.4462562735016564 -3.524958103184872e-16
    vertex 12.937201962880176 3.3404134411477147 3.524958103184872e-16
    vertex 12.874783959253254 3.2531703183714873 3.524958103184872e-16
  endloop
endfacet
facet normal 0.0 0.0 -1.0
  outer loop
    vertex 5.611624361461413 2.4462562735016564 -3.524958103184872e-16
    vertex 12.874783959253254 3.2531703183714873 3.524958103184872e-16
    vertex 12.72794968749487 2.862146705226251 3.524958103184872e-16
  endloop
endfacet
facet normal 0.0 0.0 -1.0
  outer loop
    vertex 5.611624361461413 2.4462562735016564 -3.524958103184872e-16
    vertex 12.72794968749487 2.862146705226251 3.524958103184872e-16
    vertex 12.697757045792198 2.5532071550387307 3.524958103184872e-16
  endloop
endfacet
facet normal 0.0 0.0 -1.0
  outer loop
    vertex 5.611624361461413 2.4462562735016564 -3.524958103184872e-16
    vertex 12.697757045792198 2.5532071550387307 3.524958103184872e-16
    vertex 12.687323030385889 2.4464433925955724 3.524958103184872e-16
  endloop
endfacet
facet normal 0.0 0.0 -1.0
  outer loop
    vertex 12.72794968749487 2.862146705226251 3.524958103184872e-16
    vertex 12.874783959253254 3.2531703183714873 3.524958103184872e-16
    vertex 12.765660667494815 2.962572058777843 3.524958103184872e-16
  endloop
endfacet
facet normal 0.0 0.0 -1.0
  outer loop
    vertex 13.82081630648738 4.030753804764792 3.524958103184872e-16
    vertex 18.3 5.0 0.0
    vertex 13.926642703847063 4.04830781485903 3.524958103184872e-16
  endloop
endfacet
facet normal 0.0 0.0 -1.0
  outer loop
    vertex 13.926642703847063 4.04830781485903 3.524958103184872e-16
    vertex 18.3 5.0 0.0
    vertex 14.232869824829924 4.099103401848463 3.524958103184872e-16
  endloop
endfacet
facet normal 0.0 0.0 -1.0
  outer loop
    vertex 14.232869824829924 4.099103401848463 3.524958103184872e-16
    vertex 18.3 5.0 0.0
    vertex 14.339633587273084 4.088669386442153 3.524958103184872e-16
  endloop
endfacet
facet normal 0.0 0.0 -1.0
  outer loop
    vertex 14.339633587273084 4.088669386442153 3.524958103184872e-16
    vertex 18.3 5.0 0.0
    vertex 14.648573137460602 4.0584767447394805 3.524958103184872e-16
  endloop
endfacet
facet normal 0.0 0.0 -1.0
  outer loop
    vertex 14.648573137460602 4.0584767447394805 3.524958103184872e-16
    vertex 18.3 5.0 0.0
    vertex 14.748998491012197 4.020765764739538 3.524958103184872e-16
  endloop
endfacet
facet normal 0.0 0.0 -1.0
  outer loop
    vertex 14.748998491012197 4.020765764739538 3.524958103184872e-16
    vertex 18.3 5.0 0.0
    vertex 15.03959675060584 3.911642472981099 3.524958103184872e-16
  endloop
endfacet
facet normal 0.0 0.0 -1.0
  outer loop
    vertex 15.03959675060584 3.911642472981099 3.524958103184872e-16
    vertex 18.3 5.0 0.0
    vertex 15.126839873382067 3.849224469354177 3.524958103184872e-16
  endloop
endfacet
facet normal 0.0 0.0 -1.0
  outer loop
    vertex 15.126839873382067 3.849224469354177 3.524958103184872e-16
    vertex 18.3 5.0 0.0
    vertex 15.37929305122686 3.668607099538541 3.524958103184872e-16
  endloop
endfacet
facet normal 0.0 0.0 -1.0
  outer loop
    vertex 15.37929305122686 3.668607099538541 3.524958103184872e-16
    vertex 18.3 5.0 0.0
    vertex 15.4474084685866 3.5857357560811876 3.524958103184872e-16
  endloop
endfacet
facet normal 0.0 0.0 -1.0
  outer loop
    vertex 15.4474084685866 3.5857357560811876 3.524958103184872e-16
    vertex 18.3 5.0 0.0
    vertex 15.644512297811023 3.345933083476975 3.524958103184872e-16
  endloop
endfacet
facet normal 0.0 0.0 -1.0
  outer loop
    vertex 15.644512297811023 3.345933083476975 3.524958103184872e-16
    vertex 18.3 5.0 0.0
    vertex 15.68885805662726 3.248255945294438 3.524958103184872e-16
  endloop
endfacet
facet normal 0.0 0.0 -1.0
  outer loop
    vertex 15.68885805662726 3.248255945294438 3.524958103184872e-16
    vertex 18.3 5.0 0.0
    vertex 15.817180236999144 2.9656101257469727 3.524958103184872e-16
  endloop
endfacet
facet normal 0.0 0.0 -1.0
  outer loop
    vertex 15.817180236999144 2.9656101257469727 3.524958103184872e-16
    vertex 18.3 5.0 0.0
    vertex 15.834734247093383 2.859783728387289 3.524958103184872e-16
  endloop
endfacet
facet normal 0.0 0.0 -1.0
  outer loop
    vertex 15.834734247093383 2.859783728387289 3.524958103184872e-16
    vertex 18.3 5.0 0.0
    vertex 15.885529834082817 2.553556607404427 3.524958103184872e-16
  endloop
endfacet
facet normal 0.0 0.0 -1.0
  outer loop
    vertex 0.0 0.0 0.0
    vertex 3.9587835110015277 0.9009028760384584 -3.524958103184872e-16
    vertex 18.3 0.0 0.0
  endloop
endfacet
facet normal 0.0 0.0 -1.0
  outer loop
    vertex 3.9587835110015277 0.9009028760384584 -3.524958103184872e-16
    vertex 0.0 0.0 0.0
    vertex 3.546737993424192 0.9693006891935275 -3.524958103184872e-16
  endloop
endfacet
facet normal 0.0 0.0 -1.0
  outer loop
    vertex 3.546737993424192 0.9693006891935275 -3.524958103184872e-16
    vertex 0.0 0.0 0.0
    vertex 3.1664352430774922 1.1420131307798431 -3.524958103184872e-16
  endloop
endfacet
facet normal 0.0 0.0 -1.0
  outer loop
    vertex 3.1664352430774922 1.1420131307798431 -3.524958103184872e-16
    vertex 0.0 0.0 0.0
    vertex 2.8437922639175466 1.4072701333241022 -3.524958103184872e-16
  endloop
endfacet
facet normal 0.0 0.0 -1.0
  outer loop
    vertex 2.8437922639175466 1.4072701333241022 -3.524958103184872e-16
    vertex 0.0 0.0 0.0
    vertex 2.6007966417813715 1.7469948704608371 -3.524958103184872e-16
  endloop
endfacet
facet normal 0.0 0.0 -1.0
  outer loop
    vertex 2.6007966417813715 1.7469948704608371 -3.524958103184872e-16
    vertex 0.0 0.0 0.0
    vertex 2.454008126748295 2.1380356627758523 -3.524958103184872e-16
  endloop
endfacet
facet normal 0.0 0.0 -1.0
  outer loop
    vertex 2.454008126748295 2.1380356627758523 -3.524958103184872e-16
    vertex 0.0 0.0 0.0
    vertex 2.4134301135383307 2.5537437264983427 -3.524958103184872e-16
  endloop
endfacet
facet normal 0.0 0.0 -1.0
  outer loop
    vertex 18.3 0.0 0.0
    vertex 3.9587835110015277 0.9009028760384584 -3.524958103184872e-16
    vertex 4.3744915747240185 0.9414808892484228 -3.524958103184872e-16
  endloop
endfacet
facet normal 0.0 0.0 -1.0
  outer loop
    vertex 18.3 0.0 0.0
    vertex 4.3744915747240185 0.9414808892484228 -3.524958103184872e-16
    vertex 4.765532367039033 1.0882694042814993 -3.524958103184872e-16
  endloop
endfacet
facet normal 0.0 0.0 -1.0
  outer loop
    vertex 18.3 0.0 0.0
    vertex 4.765532367039033 1.0882694042814993 -3.524958103184872e-16
    vertex 5.105257104175768 1.3312650264176742 -3.524958103184872e-16
  endloop
endfacet
facet normal 0.0 0.0 -1.0
  outer loop
    vertex 18.3 0.0 0.0
    vertex 5.105257104175768 1.3312650264176742 -3.524958103184872e-16
    vertex 5.3705141067200275 1.65390800557762 -3.524958103184872e-16
  endloop
endfacet
facet normal 0.0 0.0 -1.0
  outer loop
    vertex 18.3 0.0 0.0
    vertex 5.3705141067200275 1.65390800557762 -3.524958103184872e-16
    vertex 5.543226548306344 2.0342107559243208 -3.524958103184872e-16
  endloop
endfacet
facet normal 0.0 0.0 -1.0
  outer loop
    vertex 18.3 0.0 0.0
    vertex 5.543226548306344 2.0342107559243208 -3.524958103184872e-16
    vertex 5.611624361461413 2.4462562735016564 -3.524958103184872e-16
  endloop
endfacet
facet normal 0.0 0.0 -1.0
  outer loop
    vertex 18.3 0.0 0.0
    vertex 5.611624361461413 2.4462562735016564 -3.524958103184872e-16
    vertex 13.924279727008102 0.941523255260518 3.524958103184872e-16
  endloop
endfacet
facet normal 0.0 0.0 -1.0
  outer loop
    vertex 13.924279727008102 0.941523255260518 3.524958103184872e-16
    vertex 5.611624361461413 2.4462562735016564 -3.524958103184872e-16
    vertex 13.82385437345651 0.9792342352604613 3.524958103184872e-16
  endloop
endfacet
facet normal 0.0 0.0 -1.0
  outer loop
    vertex 13.82385437345651 0.9792342352604613 3.524958103184872e-16
    vertex 5.611624361461413 2.4462562735016564 -3.524958103184872e-16
    vertex 13.533256113862866 1.0883575270189005 3.524958103184872e-16
  endloop
endfacet
facet normal 0.0 0.0 -1.0
  outer loop
    vertex 13.533256113862866 1.0883575270189005 3.524958103184872e-16
    vertex 5.611624361461413 2.4462562735016564 -3.524958103184872e-16
    vertex 13.446012991086636 1.1507755306458225 3.524958103184872e-16
  endloop
endfacet
facet normal 0.0 0.0 -1.0
  outer loop
    vertex 13.446012991086636 1.1507755306458225 3.524958103184872e-16
    vertex 5.611624361461413 2.4462562735016564 -3.524958103184872e-16
    vertex 13.193559813241844 1.3313929004614573 3.524958103184872e-16
  endloop
endfacet
facet normal 0.0 0.0 -1.0
  outer loop
    vertex 13.193559813241844 1.3313929004614573 3.524958103184872e-16
    vertex 5.611624361461413 2.4462562735016564 -3.524958103184872e-16
    vertex 13.125444395882102 1.4142642439188122 3.524958103184872e-16
  endloop
endfacet
facet normal 0.0 0.0 -1.0
  outer loop
    vertex 13.125444395882102 1.4142642439188122 3.524958103184872e-16
    vertex 5.611624361461413 2.4462562735016564 -3.524958103184872e-16
    vertex 12.928340566657681 1.6540669165230242 3.524958103184872e-16
  endloop
endfacet
facet normal 0.0 0.0 -1.0
  outer loop
    vertex 12.928340566657681 1.6540669165230242 3.524958103184872e-16
    vertex 5.611624361461413 2.4462562735016564 -3.524958103184872e-16
    vertex 12.883994807841443 1.7517440547055616 3.524958103184872e-16
  endloop
endfacet
facet normal 0.0 0.0 -1.0
  outer loop
    vertex 12.883994807841443 1.7517440547055616 3.524958103184872e-16
    vertex 5.611624361461413 2.4462562735016564 -3.524958103184872e-16
    vertex 12.755672627469561 2.0343898742530273 3.524958103184872e-16
  endloop
endfacet
facet normal 0.0 0.0 -1.0
  outer loop
    vertex 12.755672627469561 2.0343898742530273 3.524958103184872e-16
    vertex 5.611624361461413 2.4462562735016564 -3.524958103184872e-16
    vertex 12.738118617375322 2.140216271612711 3.524958103184872e-16
  endloop
endfacet
facet normal 0.0 0.0 -1.0
  outer loop
    vertex 12.738118617375322 2.140216271612711 3.524958103184872e-16
    vertex 5.611624361461413 2.4462562735016564 -3.524958103184872e-16
    vertex 12.687323030385889 2.4464433925955724 3.524958103184872e-16
  endloop
endfacet
facet normal 0.0 0.0 -1.0
  outer loop
    vertex 18.3 0.0 0.0
    vertex 13.924279727008102 0.941523255260518 3.524958103184872e-16
    vertex 14.233219277195621 0.9113306135578458 3.524958103184872e-16
  endloop
endfacet
facet normal 0.0 0.0 -1.0
  outer loop
    vertex 18.3 0.0 0.0
    vertex 14.233219277195621 0.9113306135578458 3.524958103184872e-16
    vertex 14.33998303963878 0.9008965981515361 3.524958103184872e-16
  endloop
endfacet
facet normal 0.0 0.0 -1.0
  outer loop
    vertex 18.3 0.0 0.0
    vertex 14.33998303963878 0.9008965981515361 3.524958103184872e-16
    vertex 14.646210160621642 0.9516921851409686 3.524958103184872e-16
  endloop
endfacet
facet normal 0.0 0.0 -1.0
  outer loop
    vertex 18.3 0.0 0.0
    vertex 14.646210160621642 0.9516921851409686 3.524958103184872e-16
    vertex 14.752036557981327 0.9692461952352073 3.524958103184872e-16
  endloop
endfacet
facet normal 0.0 0.0 -1.0
  outer loop
    vertex 18.3 0.0 0.0
    vertex 14.752036557981327 0.9692461952352073 3.524958103184872e-16
    vertex 15.03468237752879 1.097568375607091 3.524958103184872e-16
  endloop
endfacet
facet normal 0.0 0.0 -1.0
  outer loop
    vertex 18.3 0.0 0.0
    vertex 15.03468237752879 1.097568375607091 3.524958103184872e-16
    vertex 15.132359515711329 1.1419141344233283 3.524958103184872e-16
  endloop
endfacet
facet normal 0.0 0.0 -1.0
  outer loop
    vertex 18.3 0.0 0.0
    vertex 15.132359515711329 1.1419141344233283 3.524958103184872e-16
    vertex 15.372162188315539 1.3390179636477493 3.524958103184872e-16
  endloop
endfacet
facet normal 0.0 0.0 -1.0
  outer loop
    vertex 18.3 0.0 0.0
    vertex 15.372162188315539 1.3390179636477493 3.524958103184872e-16
    vertex 15.455033531772894 1.4071333810074913 3.524958103184872e-16
  endloop
endfacet
facet normal 0.0 0.0 -1.0
  outer loop
    vertex 18.3 0.0 0.0
    vertex 15.455033531772894 1.4071333810074913 3.524958103184872e-16
    vertex 15.63565090158853 1.6595865588522845 3.524958103184872e-16
  endloop
endfacet
facet normal 0.0 0.0 -1.0
  outer loop
    vertex 18.3 0.0 0.0
    vertex 15.63565090158853 1.6595865588522845 3.524958103184872e-16
    vertex 15.698068905215452 1.7468296816285125 3.524958103184872e-16
  endloop
endfacet
facet normal 0.0 0.0 -1.0
  outer loop
    vertex 18.3 0.0 0.0
    vertex 15.698068905215452 1.7468296816285125 3.524958103184872e-16
    vertex 15.80719219697389 2.037427941222157 3.524958103184872e-16
  endloop
endfacet
facet normal 0.0 0.0 -1.0
  outer loop
    vertex 18.3 0.0 0.0
    vertex 15.80719219697389 2.037427941222157 3.524958103184872e-16
    vertex 15.844903176973835 2.137853294773749 3.524958103184872e-16
  endloop
endfacet
facet normal 0.0 0.0 -1.0
  outer loop
    vertex 18.3 0.0 0.0
    vertex 15.844903176973835 2.137853294773749 3.524958103184872e-16
    vertex 15.875095818676506 2.4467928449612684 3.524958103184872e-16
  endloop
endfacet
facet normal 0.0 0.0 -1.0
  outer loop
    vertex 18.3 0.0 0.0
    vertex 15.875095818676506 2.4467928449612684 3.524958103184872e-16
    vertex 15.885529834082817 2.553556607404427 3.524958103184872e-16
  endloop
endfacet
facet normal 0.0 0.0 -1.0
  outer loop
    vertex 18.3 0.0 0.0
    vertex 15.885529834082817 2.553556607404427 3.524958103184872e-16
    vertex 18.3 5.0 0.0
  endloop
endfacet
facet normal 5.859216796997466e-20 1.0 2.725111310335433e-16
  outer loop
    vertex 0.0 4.999999999999999 2.4500000000000006
    vertex 18.3 5.0 0.0
    vertex 0.0 5.0 0.0
  endloop
endfacet
facet normal 5.859216796997466e-20 1.0 2.725111310335433e-16
  outer loop
    vertex 18.3 5.0 0.0
    vertex 0.0 4.999999999999999 2.4500000000000006
    vertex 9.126880625618845 4.999999999999999 1.5002324171693562
  endloop
endfacet
facet normal 5.859216796997466e-20 1.0 2.725111310335433e-16
  outer loop
    vertex 9.126880625618845 4.999999999999999 1.5002324171693562
    vertex 0.0 4.999999999999999 2.4500000000000006
    vertex 8.830086651319535 4.999999999999999 1.5453935319146241
  endloop
endfacet
facet normal 5.859216796997466e-20 1.0 2.725111310335433e-16
  outer loop
    vertex 8.830086651319535 4.999999999999999 1.5453935319146241
    vertex 0.0 4.999999999999999 2.4500000000000006
    vertex 8.555094243050993 4.999999999999999 1.6658317520114114
  endloop
endfacet
facet normal 5.859216796997466e-20 1.0 2.725111310335433e-16
  outer loop
    vertex 8.555094243050993 4.999999999999999 1.6658317520114114
    vertex 0.0 4.999999999999999 2.4500000000000006
    vertex 8.32064367899028 4.999999999999999 1.8533394117936923
  endloop
endfacet
facet normal 5.859216796997466e-20 1.0 2.725111310335433e-16
  outer loop
    vertex 8.32064367899028 4.999999999999999 1.8533394117936923
    vertex 0.0 4.999999999999999 2.4500000000000006
    vertex 8.142712377630254 4.999999999999999 2.095138174118363
  endloop
endfacet
facet normal 5.859216796997466e-20 1.0 2.725111310335433e-16
  outer loop
    vertex 8.142712377630254 4.999999999999999 2.095138174118363
    vertex 0.0 4.999999999999999 2.4500000000000006
    vertex 8.033426063113227 4.999999999999999 2.374749852924344
  endloop
endfacet
facet normal 5.859216796997466e-20 1.0 2.725111310335433e-16
  outer loop
    vertex 8.033426063113227 4.999999999999999 2.374749852924344
    vertex 0.0 4.999999999999999 2.4500000000000006
    vertex 8.025054474999743 4.999999999999999 2.450000000000001
  endloop
endfacet
facet normal 5.859216796997466e-20 1.0 2.725111310335433e-16
  outer loop
    vertex 9.126880625618845 4.999999999999999 1.5002324171693562
    vertex 18.3 4.999999999999999 2.4500000000000015
    vertex 18.3 5.0 0.0
  endloop
endfacet
facet normal 5.859216796997466e-20 1.0 2.725111310335433e-16
  outer loop
    vertex 18.3 4.999999999999999 2.4500000000000015
    vertex 9.126880625618845 4.999999999999999 1.5002324171693562
    vertex 9.425250147075657 4.999999999999999 1.5334260631132273
  endloop
endfacet
facet normal 5.859216796997466e-20 1.0 2.725111310335433e-16
  outer loop
    vertex 18.3 4.999999999999999 2.4500000000000015
    vertex 9.425250147075657 4.999999999999999 1.5334260631132273
    vertex 9.70486182588164 4.999999999999999 1.6427123776302557
  endloop
endfacet
facet normal 5.859216796997466e-20 1.0 2.725111310335433e-16
  outer loop
    vertex 18.3 4.999999999999999 2.4500000000000015
    vertex 9.70486182588164 4.999999999999999 1.6427123776302557
    vertex 9.946660588206308 4.999999999999999 1.820643678990281
  endloop
endfacet
facet normal 5.859216796997466e-20 1.0 2.725111310335433e-16
  outer loop
    vertex 18.3 4.999999999999999 2.4500000000000015
    vertex 9.946660588206308 4.999999999999999 1.820643678990281
    vertex 10.13416824798859 4.999999999999999 2.0550942430509944
  endloop
endfacet
facet normal 5.859216796997466e-20 1.0 2.725111310335433e-16
  outer loop
    vertex 18.3 4.999999999999999 2.4500000000000015
    vertex 10.13416824798859 4.999999999999999 2.0550942430509944
    vertex 10.254606468085377 4.999999999999999 2.3300866513195357
  endloop
endfacet
facet normal 5.859216796997466e-20 1.0 2.725111310335433e-16
  outer loop
    vertex 18.3 4.999999999999999 2.4500000000000015
    vertex 10.254606468085377 4.999999999999999 2.3300866513195357
    vertex 10.272852864468703 4.999999999999999 2.4500000000000015
  endloop
endfacet
facet normal 0.0 0.0 1.0
  outer loop
    vertex 10.272852864468703 0.0 2.4500000000000015
    vertex 12.928340566657681 1.6540669165230242 2.4500000000000015
    vertex 10.272852864468703 4.999999999999999 2.4500000000000015
  endloop
endfacet
facet normal 0.0 0.0 1.0
  outer loop
    vertex 12.928340566657681 1.6540669165230242 2.4500000000000015
    vertex 10.272852864468703 0.0 2.4500000000000015
    vertex 13.125444395882102 1.4142642439188122 2.4500000000000015
  endloop
endfacet
facet normal 0.0 0.0 1.0
  outer loop
    vertex 13.125444395882102 1.4142642439188122 2.4500000000000015
    vertex 10.272852864468703 0.0 2.4500000000000015
    vertex 13.193559813241844 1.3313929004614573 2.4500000000000015
  endloop
endfacet
facet normal 0.0 0.0 1.0
  outer loop
    vertex 13.193559813241844 1.3313929004614573 2.4500000000000015
    vertex 10.272852864468703 0.0 2.4500000000000015
    vertex 13.446012991086636 1.1507755306458225 2.4500000000000015
  endloop
endfacet
facet normal 0.0 0.0 1.0
  outer loop
    vertex 13.446012991086636 1.1507755306458225 2.4500000000000015
    vertex 10.272852864468703 0.0 2.4500000000000015
    vertex 13.533256113862866 1.0883575270189005 2.4500000000000015
  endloop
endfacet
facet normal 0.0 0.0 1.0
  outer loop
    vertex 13.533256113862866 1.0883575270189005 2.4500000000000015
    vertex 10.272852864468703 0.0 2.4500000000000015
    vertex 13.82385437345651 0.9792342352604613 2.4500000000000015
  endloop
endfacet
facet normal 0.0 0.0 1.0
  outer loop
    vertex 13.82385437345651 0.9792342352604613 2.4500000000000015
    vertex 10.272852864468703 0.0 2.4500000000000015
    vertex 13.924279727008102 0.941523255260518 2.4500000000000015
  endloop
endfacet
facet normal 0.0 0.0 1.0
  outer loop
    vertex 13.924279727008102 0.941523255260518 2.4500000000000015
    vertex 10.272852864468703 0.0 2.4500000000000015
    vertex 18.3 0.0 2.4500000000000015
  endloop
endfacet
facet normal 0.0 0.0 1.0
  outer loop
    vertex 10.272852864468703 4.999999999999999 2.4500000000000015
    vertex 12.928340566657681 1.6540669165230242 2.4500000000000015
    vertex 12.883994807841443 1.7517440547055616 2.4500000000000015
  endloop
endfacet
facet normal 0.0 0.0 1.0
  outer loop
    vertex 10.272852864468703 4.999999999999999 2.4500000000000015
    vertex 12.883994807841443 1.7517440547055616 2.4500000000000015
    vertex 12.755672627469561 2.0343898742530273 2.4500000000000015
  endloop
endfacet
facet normal 0.0 0.0 1.0
  outer loop
    vertex 10.272852864468703 4.999999999999999 2.4500000000000015
    vertex 12.755672627469561 2.0343898742530273 2.4500000000000015
    vertex 12.738118617375322 2.140216271612711 2.4500000000000015
  endloop
endfacet
facet normal 0.0 0.0 1.0
  outer loop
    vertex 10.272852864468703 4.999999999999999 2.4500000000000015
    vertex 12.738118617375322 2.140216271612711 2.4500000000000015
    vertex 12.687323030385889 2.4464433925955724 2.4500000000000015
  endloop
endfacet
facet normal 0.0 0.0 1.0
  outer loop
    vertex 13.924279727008102 0.941523255260518 2.4500000000000015
    vertex 18.3 0.0 2.4500000000000015
    vertex 14.233219277195621 0.9113306135578458 2.4500000000000015
  endloop
endfacet
facet normal 0.0 0.0 1.0
  outer loop
    vertex 14.233219277195621 0.9113306135578458 2.4500000000000015
    vertex 18.3 0.0 2.4500000000000015
    vertex 14.33998303963878 0.9008965981515361 2.4500000000000015
  endloop
endfacet
facet normal 0.0 0.0 1.0
  outer loop
    vertex 14.33998303963878 0.9008965981515361 2.4500000000000015
    vertex 18.3 0.0 2.4500000000000015
    vertex 14.646210160621642 0.9516921851409686 2.4500000000000015
  endloop
endfacet
facet normal 0.0 0.0 1.0
  outer loop
    vertex 14.646210160621642 0.9516921851409686 2.4500000000000015
    vertex 18.3 0.0 2.4500000000000015
    vertex 14.752036557981327 0.9692461952352073 2.4500000000000015
  endloop
endfacet
facet normal 0.0 0.0 1.0
  outer loop
    vertex 14.752036557981327 0.9692461952352073 2.4500000000000015
    vertex 18.3 0.0 2.4500000000000015
    vertex 15.03468237752879 1.097568375607091 2.4500000000000015
  endloop
endfacet
facet normal 0.0 0.0 1.0
  outer loop
    vertex 15.03468237752879 1.097568375607091 2.4500000000000015
    vertex 18.3 0.0 2.4500000000000015
    vertex 15.132359515711329 1.1419141344233283 2.4500000000000015
  endloop
endfacet
facet normal 0.0 0.0 1.0
  outer loop
    vertex 15.132359515711329 1.1419141344233283 2.4500000000000015
    vertex 18.3 0.0 2.4500000000000015
    vertex 15.372162188315539 1.3390179636477493 2.4500000000000015
  endloop
endfacet
facet normal 0.0 0.0 1.0
  outer loop
    vertex 15.372162188315539 1.3390179636477493 2.4500000000000015
    vertex 18.3 0.0 2.4500000000000015
    vertex 15.455033531772894 1.4071333810074913 2.4500000000000015
  endloop
endfacet
facet normal 0.0 0.0 1.0
  outer loop
    vertex 15.455033531772894 1.4071333810074913 2.4500000000000015
    vertex 18.3 0.0 2.4500000000000015
    vertex 15.63565090158853 1.6595865588522845 2.4500000000000015
  endloop
endfacet
facet normal 0.0 0.0 1.0
  outer loop
    vertex 15.63565090158853 1.6595865588522845 2.4500000000000015
    vertex 18.3 0.0 2.4500000000000015
    vertex 15.698068905215452 1.7468296816285125 2.4500000000000015
  endloop
endfacet
facet normal 0.0 0.0 1.0
  outer loop
    vertex 15.698068905215452 1.7468296816285125 2.4500000000000015
    vertex 18.3 0.0 2.4500000000000015
    vertex 15.80719219697389 2.037427941222157 2.4500000000000015
  endloop
endfacet
facet normal 0.0 0.0 1.0
  outer loop
    vertex 15.80719219697389 2.037427941222157 2.4500000000000015
    vertex 18.3 0.0 2.4500000000000015
    vertex 15.844903176973835 2.137853294773749 2.4500000000000015
  endloop
endfacet
facet normal 0.0 0.0 1.0
  outer loop
    vertex 15.844903176973835 2.137853294773749 2.4500000000000015
    vertex 18.3 0.0 2.4500000000000015
    vertex 15.875095818676506 2.4467928449612684 2.4500000000000015
  endloop
endfacet
facet normal 0.0 0.0 1.0
  outer loop
    vertex 15.875095818676506 2.4467928449612684 2.4500000000000015
    vertex 18.3 0.0 2.4500000000000015
    vertex 15.885529834082817 2.553556607404427 2.4500000000000015
  endloop
endfacet
facet normal 0.0 0.0 1.0
  outer loop
    vertex 10.272852864468703 4.999999999999999 2.4500000000000015
    vertex 13.82081630648738 4.030753804764792 2.4500000000000015
    vertex 18.3 4.999999999999999 2.4500000000000015
  endloop
endfacet
facet normal 0.0 0.0 1.0
  outer loop
    vertex 13.82081630648738 4.030753804764792 2.4500000000000015
    vertex 10.272852864468703 4.999999999999999 2.4500000000000015
    vertex 13.538170486939913 3.902431624392908 2.4500000000000015
  endloop
endfacet
facet normal 0.0 0.0 1.0
  outer loop
    vertex 13.538170486939913 3.902431624392908 2.4500000000000015
    vertex 10.272852864468703 4.999999999999999 2.4500000000000015
    vertex 13.440493348757375 3.8580858655766708 2.4500000000000015
  endloop
endfacet
facet normal 0.0 0.0 1.0
  outer loop
    vertex 13.440493348757375 3.8580858655766708 2.4500000000000015
    vertex 10.272852864468703 4.999999999999999 2.4500000000000015
    vertex 13.200690676153163 3.6609820363522494 2.4500000000000015
  endloop
endfacet
facet normal 0.0 0.0 1.0
  outer loop
    vertex 13.200690676153163 3.6609820363522494 2.4500000000000015
    vertex 10.272852864468703 4.999999999999999 2.4500000000000015
    vertex 13.117819332695811 3.5928666189925083 2.4500000000000015
  endloop
endfacet
facet normal 0.0 0.0 1.0
  outer loop
    vertex 13.117819332695811 3.5928666189925083 2.4500000000000015
    vertex 10.272852864468703 4.999999999999999 2.4500000000000015
    vertex 12.937201962880176 3.3404134411477147 2.4500000000000015
  endloop
endfacet
facet normal 0.0 0.0 1.0
  outer loop
    vertex 12.937201962880176 3.3404134411477147 2.4500000000000015
    vertex 10.272852864468703 4.999999999999999 2.4500000000000015
    vertex 12.874783959253254 3.2531703183714873 2.4500000000000015
  endloop
endfacet
facet normal 0.0 0.0 1.0
  outer loop
    vertex 12.874783959253254 3.2531703183714873 2.4500000000000015
    vertex 10.272852864468703 4.999999999999999 2.4500000000000015
    vertex 12.72794968749487 2.862146705226251 2.4500000000000015
  endloop
endfacet
facet normal 0.0 0.0 1.0
  outer loop
    vertex 12.72794968749487 2.862146705226251 2.4500000000000015
    vertex 10.272852864468703 4.999999999999999 2.4500000000000015
    vertex 12.697757045792198 2.5532071550387307 2.4500000000000015
  endloop
endfacet
facet normal 0.0 0.0 1.0
  outer loop
    vertex 12.697757045792198 2.5532071550387307 2.4500000000000015
    vertex 10.272852864468703 4.999999999999999 2.4500000000000015
    vertex 12.687323030385889 2.4464433925955724 2.4500000000000015
  endloop
endfacet
facet normal 0.0 0.0 1.0
  outer loop
    vertex 12.874783959253254 3.2531703183714873 2.4500000000000015
    vertex 12.72794968749487 2.862146705226251 2.4500000000000015
    vertex 12.765660667494815 2.962572058777843 2.4500000000000015
  endloop
endfacet
facet normal 0.0 0.0 1.0
  outer loop
    vertex 18.3 4.999999999999999 2.4500000000000015
    vertex 13.82081630648738 4.030753804764792 2.4500000000000015
    vertex 13.926642703847063 4.04830781485903 2.4500000000000015
  endloop
endfacet
facet normal 0.0 0.0 1.0
  outer loop
    vertex 18.3 4.999999999999999 2.4500000000000015
    vertex 13.926642703847063 4.04830781485903 2.4500000000000015
    vertex 14.232869824829924 4.099103401848463 2.4500000000000015
  endloop
endfacet
facet normal 0.0 0.0 1.0
  outer loop
    vertex 18.3 4.999999999999999 2.4500000000000015
    vertex 14.232869824829924 4.099103401848463 2.4500000000000015
    vertex 14.339633587273084 4.088669386442153 2.4500000000000015
  endloop
endfacet
facet normal 0.0 0.0 1.0
  outer loop
    vertex 18.3 4.999999999999999 2.4500000000000015
    vertex 14.339633587273084 4.088669386442153 2.4500000000000015
    vertex 14.648573137460602 4.0584767447394805 2.4500000000000015
  endloop
endfacet
facet normal 0.0 0.0 1.0
  outer loop
    vertex 18.3 4.999999999999999 2.4500000000000015
    vertex 14.648573137460602 4.0584767447394805 2.4500000000000015
    vertex 14.748998491012197 4.020765764739538 2.4500000000000015
  endloop
endfacet
facet normal 0.0 0.0 1.0
  outer loop
    vertex 18.3 4.999999999999999 2.4500000000000015
    vertex 14.748998491012197 4.020765764739538 2.4500000000000015
    vertex 15.03959675060584 3.911642472981099 2.4500000000000015
  endloop
endfacet
facet normal 0.0 0.0 1.0
  outer loop
    vertex 18.3 4.999999999999999 2.4500000000000015
    vertex 15.03959675060584 3.911642472981099 2.4500000000000015
    vertex 15.126839873382067 3.849224469354177 2.4500000000000015
  endloop
endfacet
facet normal 0.0 0.0 1.0
  outer loop
    vertex 18.3 4.999999999999999 2.4500000000000015
    vertex 15.126839873382067 3.849224469354177 2.4500000000000015
    vertex 15.37929305122686 3.668607099538541 2.4500000000000015
  endloop
endfacet
facet normal 0.0 0.0 1.0
  outer loop
    vertex 18.3 4.999999999999999 2.4500000000000015
    vertex 15.37929305122686 3.668607099538541 2.4500000000000015
    vertex 15.4474084685866 3.5857357560811876 2.4500000000000015
  endloop
endfacet
facet normal 0.0 0.0 1.0
  outer loop
    vertex 18.3 4.999999999999999 2.4500000000000015
    vertex 15.4474084685866 3.5857357560811876 2.4500000000000015
    vertex 15.644512297811023 3.345933083476975 2.4500000000000015
  endloop
endfacet
facet normal 0.0 0.0 1.0
  outer loop
    vertex 18.3 4.999999999999999 2.4500000000000015
    vertex 15.644512297811023 3.345933083476975 2.4500000000000015
    vertex 15.68885805662726 3.248255945294438 2.4500000000000015
  endloop
endfacet
facet normal 0.0 0.0 1.0
  outer loop
    vertex 18.3 4.999999999999999 2.4500000000000015
    vertex 15.68885805662726 3.248255945294438 2.4500000000000015
    vertex 15.817180236999144 2.9656101257469727 2.4500000000000015
  endloop
endfacet
facet normal 0.0 0.0 1.0
  outer loop
    vertex 18.3 4.999999999999999 2.4500000000000015
    vertex 15.817180236999144 2.9656101257469727 2.4500000000000015
    vertex 15.834734247093383 2.859783728387289 2.4500000000000015
  endloop
endfacet
facet normal 0.0 0.0 1.0
  outer loop
    vertex 18.3 4.999999999999999 2.4500000000000015
    vertex 15.834734247093383 2.859783728387289 2.4500000000000015
    vertex 15.885529834082817 2.553556607404427 2.4500000000000015
  endloop
endfacet
facet normal 0.0 0.0 1.0
  outer loop
    vertex 18.3 4.999999999999999 2.4500000000000015
    vertex 15.885529834082817 2.553556607404427 2.4500000000000015
    vertex 18.3 0.0 2.4500000000000015
  endloop
endfacet
facet normal 0.020103803809700244 0.0 0.9997978981136044
  outer loop
    vertex 9.126880625618845 0.0 1.5002324171693562
    vertex 8.830086651319535 4.999999999999999 1.5453935319146241
    vertex 8.830086651319535 0.0 1.5453935319146241
  endloop
endfacet
facet normal 0.27818552059170804 0.0 0.960527363552502
  outer loop
    vertex 8.830086651319535 4.999999999999999 1.5453935319146241
    vertex 9.126880625618845 0.0 1.5002324171693562
    vertex 9.126880625618845 4.999999999999999 1.5002324171693562
  endloop
endfacet
facet normal 0.9709338581624133 0.0 0.23934795397882777
  outer loop
    vertex 8.033426063113227 4.999999999999999 2.374749852924344
    vertex 8.025054474999743 0.0 2.450000000000001
    vertex 8.033426063113227 0.0 2.374749852924344
  endloop
endfacet
facet normal 0.9938685614574895 0.0 0.11056799964917785
  outer loop
    vertex 8.025054474999743 0.0 2.450000000000001
    vertex 8.033426063113227 4.999999999999999 2.374749852924344
    vertex 8.025054474999743 4.999999999999999 2.450000000000001
  endloop
endfacet
facet normal -0.23934795397883152 0.0 0.9709338581624123
  outer loop
    vertex 9.425250147075657 0.0 1.5334260631132273
    vertex 9.126880625618845 4.999999999999999 1.5002324171693562
    vertex 9.126880625618845 0.0 1.5002324171693562
  endloop
endfacet
facet normal 0.020103803809700244 0.0 0.9997978981136044
  outer loop
    vertex 9.126880625618845 4.999999999999999 1.5002324171693562
    vertex 9.425250147075657 0.0 1.5334260631132273
    vertex 9.425250147075657 4.999999999999999 1.5334260631132273
  endloop
endfacet
facet normal -8.784882680026878e-17 0.0 1.0
  outer loop
    vertex 0.0 0.0 2.4500000000000006
    vertex 2.8437922639175466 1.4072701333241022 2.4500000000000006
    vertex 0.0 4.999999999999999 2.4500000000000006
  endloop
endfacet
facet normal -8.784882680026878e-17 0.0 1.0
  outer loop
    vertex 2.8437922639175466 1.4072701333241022 2.4500000000000006
    vertex 0.0 0.0 2.4500000000000006
    vertex 3.1664352430774922 1.1420131307798431 2.4500000000000006
  endloop
endfacet
facet normal -8.784882680026878e-17 0.0 1.0
  outer loop
    vertex 3.1664352430774922 1.1420131307798431 2.4500000000000006
    vertex 0.0 0.0 2.4500000000000006
    vertex 3.546737993424192 0.9693006891935275 2.4500000000000006
  endloop
endfacet
facet normal -8.784882680026878e-17 0.0 1.0
  outer loop
    vertex 3.546737993424192 0.9693006891935275 2.4500000000000006
    vertex 0.0 0.0 2.4500000000000006
    vertex 8.025054474999743 0.0 2.450000000000001
  endloop
endfacet
facet normal -8.784882680026878e-17 0.0 1.0
  outer loop
    vertex 0.0 4.999999999999999 2.4500000000000006
    vertex 2.8437922639175466 1.4072701333241022 2.4500000000000006
    vertex 2.6007966417813715 1.7469948704608371 2.4500000000000006
  endloop
endfacet
facet normal -8.784882680026878e-17 0.0 1.0
  outer loop
    vertex 0.0 4.999999999999999 2.4500000000000006
    vertex 2.6007966417813715 1.7469948704608371 2.4500000000000006
    vertex 2.454008126748295 2.1380356627758523 2.4500000000000006
  endloop
endfacet
facet normal -8.784882680026878e-17 0.0 1.0
  outer loop
    vertex 0.0 4.999999999999999 2.4500000000000006
    vertex 2.454008126748295 2.1380356627758523 2.4500000000000006
    vertex 2.4134301135383307 2.5537437264983427 2.4500000000000006
  endloop
endfacet
facet normal -8.784882680026878e-17 0.0 1.0
  outer loop
    vertex 3.546737993424192 0.9693006891935275 2.4500000000000006
    vertex 8.025054474999743 0.0 2.450000000000001
    vertex 3.9587835110015277 0.9009028760384584 2.4500000000000006
  endloop
endfacet
facet normal -8.784882680026878e-17 0.0 1.0
  outer loop
    vertex 3.9587835110015277 0.9009028760384584 2.4500000000000006
    vertex 8.025054474999743 0.0 2.450000000000001
    vertex 4.3744915747240185 0.9414808892484228 2.4500000000000006
  endloop
endfacet
facet normal -8.784882680026878e-17 0.0 1.0
  outer loop
    vertex 4.3744915747240185 0.9414808892484228 2.4500000000000006
    vertex 8.025054474999743 0.0 2.450000000000001
    vertex 4.765532367039033 1.0882694042814993 2.4500000000000006
  endloop
endfacet
facet normal -8.784882680026878e-17 0.0 1.0
  outer loop
    vertex 4.765532367039033 1.0882694042814993 2.4500000000000006
    vertex 8.025054474999743 0.0 2.450000000000001
    vertex 5.105257104175768 1.3312650264176742 2.4500000000000006
  endloop
endfacet
facet normal -8.784882680026878e-17 0.0 1.0
  outer loop
    vertex 5.105257104175768 1.3312650264176742 2.4500000000000006
    vertex 8.025054474999743 0.0 2.450000000000001
    vertex 5.3705141067200275 1.65390800557762 2.4500000000000006
  endloop
endfacet
facet normal -8.784882680026878e-17 0.0 1.0
  outer loop
    vertex 5.3705141067200275 1.65390800557762 2.4500000000000006
    vertex 8.025054474999743 0.0 2.450000000000001
    vertex 5.543226548306344 2.0342107559243208 2.4500000000000006
  endloop
endfacet
facet normal -8.784882680026878e-17 0.0 1.0
  outer loop
    vertex 5.543226548306344 2.0342107559243208 2.4500000000000006
    vertex 8.025054474999743 0.0 2.450000000000001
    vertex 5.611624361461413 2.4462562735016564 2.4500000000000006
  endloop
endfacet
facet normal -8.784882680026878e-17 0.0 1.0
  outer loop
    vertex 0.0 4.999999999999999 2.4500000000000006
    vertex 3.650562900275724 4.0585191107515755 2.4500000000000006
    vertex 8.025054474999743 4.999999999999999 2.450000000000001
  endloop
endfacet
facet normal -8.784882680026878e-17 0.0 1.0
  outer loop
    vertex 3.650562900275724 4.0585191107515755 2.4500000000000006
    vertex 0.0 4.999999999999999 2.4500000000000006
    vertex 3.2595221079607097 3.911730595718499 2.4500000000000006
  endloop
endfacet
facet normal -8.784882680026878e-17 0.0 1.0
  outer loop
    vertex 3.2595221079607097 3.911730595718499 2.4500000000000006
    vertex 0.0 4.999999999999999 2.4500000000000006
    vertex 2.919797370823974 3.668734973582324 2.4500000000000006
  endloop
endfacet
facet normal -8.784882680026878e-17 0.0 1.0
  outer loop
    vertex 2.919797370823974 3.668734973582324 2.4500000000000006
    vertex 0.0 4.999999999999999 2.4500000000000006
    vertex 2.6545403682797155 3.346091994422378 2.4500000000000006
  endloop
endfacet
facet normal -8.784882680026878e-17 0.0 1.0
  outer loop
    vertex 2.6545403682797155 3.346091994422378 2.4500000000000006
    vertex 0.0 4.999999999999999 2.4500000000000006
    vertex 2.4818279266934 2.9657892440756783 2.4500000000000006
  endloop
endfacet
facet normal -8.784882680026878e-17 0.0 1.0
  outer loop
    vertex 2.4818279266934 2.9657892440756783 2.4500000000000006
    vertex 0.0 4.999999999999999 2.4500000000000006
    vertex 2.4134301135383307 2.5537437264983427 2.4500000000000006
  endloop
endfacet
facet normal -8.784882680026878e-17 0.0 1.0
  outer loop
    vertex 8.025054474999743 4.999999999999999 2.450000000000001
    vertex 3.650562900275724 4.0585191107515755 2.4500000000000006
    vertex 4.066270963998215 4.099097123961541 2.4500000000000006
  endloop
endfacet
facet normal -8.784882680026878e-17 0.0 1.0
  outer loop
    vertex 8.025054474999743 4.999999999999999 2.450000000000001
    vertex 4.066270963998215 4.099097123961541 2.4500000000000006
    vertex 4.4783164815755505 4.0306993108064715 2.4500000000000006
  endloop
endfacet
facet normal -8.784882680026878e-17 0.0 1.0
  outer loop
    vertex 8.025054474999743 4.999999999999999 2.450000000000001
    vertex 4.4783164815755505 4.0306993108064715 2.4500000000000006
    vertex 4.858619231922251 3.8579868692201558 2.4500000000000006
  endloop
endfacet
facet normal -8.784882680026878e-17 0.0 1.0
  outer loop
    vertex 8.025054474999743 4.999999999999999 2.450000000000001
    vertex 4.858619231922251 3.8579868692201558 2.4500000000000006
    vertex 5.181262211082196 3.592729866675896 2.4500000000000006
  endloop
endfacet
facet normal -8.784882680026878e-17 0.0 1.0
  outer loop
    vertex 8.025054474999743 4.999999999999999 2.450000000000001
    vertex 5.181262211082196 3.592729866675896 2.4500000000000006
    vertex 5.4242578332183715 3.2530051295391624 2.4500000000000006
  endloop
endfacet
facet normal -8.784882680026878e-17 0.0 1.0
  outer loop
    vertex 8.025054474999743 4.999999999999999 2.450000000000001
    vertex 5.4242578332183715 3.2530051295391624 2.4500000000000006
    vertex 5.571046348251449 2.8619643372241463 2.4500000000000006
  endloop
endfacet
facet normal -8.784882680026878e-17 0.0 1.0
  outer loop
    vertex 8.025054474999743 4.999999999999999 2.450000000000001
    vertex 5.571046348251449 2.8619643372241463 2.4500000000000006
    vertex 5.611624361461413 2.4462562735016564 2.4500000000000006
  endloop
endfacet
facet normal -8.784882680026878e-17 0.0 1.0
  outer loop
    vertex 8.025054474999743 4.999999999999999 2.450000000000001
    vertex 5.611624361461413 2.4462562735016564 2.4500000000000006
    vertex 8.025054474999743 0.0 2.450000000000001
  endloop
endfacet
facet normal 0.5173093538687009 0.0 0.8557984765118173
  outer loop
    vertex 8.555094243050993 0.0 1.6658317520114114
    vertex 8.32064367899028 4.999999999999999 1.8533394117936923
    vertex 8.32064367899028 0.0 1.8533394117936923
  endloop
endfacet
facet normal 0.72117940957367 0.0 0.6927483375707032
  outer loop
    vertex 8.32064367899028 4.999999999999999 1.8533394117936923
    vertex 8.555094243050993 0.0 1.6658317520114114
    vertex 8.555094243050993 4.999999999999999 1.6658317520114114
  endloop
endfacet
facet normal 0.27818552059170804 0.0 0.960527363552502
  outer loop
    vertex 8.830086651319535 0.0 1.5453935319146241
    vertex 8.555094243050993 4.999999999999999 1.6658317520114114
    vertex 8.555094243050993 0.0 1.6658317520114114
  endloop
endfacet
facet normal 0.5173093538687009 0.0 0.8557984765118173
  outer loop
    vertex 8.555094243050993 4.999999999999999 1.6658317520114114
    vertex 8.830086651319535 0.0 1.5453935319146241
    vertex 8.830086651319535 4.999999999999999 1.5453935319146241
  endloop
endfacet
facet normal 0.72117940957367 0.0 0.6927483375707032
  outer loop
    vertex 8.32064367899028 4.999999999999999 1.8533394117936923
    vertex 8.142712377630254 0.0 2.095138174118363
    vertex 8.32064367899028 0.0 1.8533394117936923
  endloop
endfacet
facet normal 0.8759022803215181 0.0 0.48248854424490245
  outer loop
    vertex 8.142712377630254 0.0 2.095138174118363
    vertex 8.32064367899028 4.999999999999999 1.8533394117936923
    vertex 8.142712377630254 4.999999999999999 2.095138174118363
  endloop
endfacet
facet normal -0.4824885442449029 0.0 0.8759022803215176
  outer loop
    vertex 9.70486182588164 0.0 1.6427123776302557
    vertex 9.425250147075657 4.999999999999999 1.5334260631132273
    vertex 9.425250147075657 0.0 1.5334260631132273
  endloop
endfacet
facet normal -0.23934795397883152 0.0 0.9709338581624123
  outer loop
    vertex 9.425250147075657 4.999999999999999 1.5334260631132273
    vertex 9.70486182588164 0.0 1.6427123776302557
    vertex 9.70486182588164 4.999999999999999 1.6427123776302557
  endloop
endfacet
facet normal -0.9605273635525018 0.0 0.2781855205917088
  outer loop
    vertex 10.254606468085377 4.999999999999999 2.3300866513195357
    vertex 10.13416824798859 0.0 2.0550942430509944
    vertex 10.254606468085377 0.0 2.3300866513195357
  endloop
endfacet
facet normal -0.8557984765118168 0.0 0.5173093538687016
  outer loop
    vertex 10.13416824798859 0.0 2.0550942430509944
    vertex 10.254606468085377 4.999999999999999 2.3300866513195357
    vertex 10.13416824798859 4.999999999999999 2.0550942430509944
  endloop
endfacet
facet normal -0.9886204155366503 0.0 0.15043162561157497
  outer loop
    vertex 10.272852864468703 4.999999999999999 2.4500000000000015
    vertex 10.254606468085377 0.0 2.3300866513195357
    vertex 10.272852864468703 0.0 2.4500000000000015
  endloop
endfacet
facet normal -0.9605273635525018 0.0 0.2781855205917088
  outer loop
    vertex 10.254606468085377 0.0 2.3300866513195357
    vertex 10.272852864468703 4.999999999999999 2.4500000000000015
    vertex 10.254606468085377 4.999999999999999 2.3300866513195357
  endloop
endfacet
facet normal -0.6927483375707035 0.0 0.7211794095736695
  outer loop
    vertex 9.946660588206308 0.0 1.820643678990281
    vertex 9.70486182588164 4.999999999999999 1.6427123776302557
    vertex 9.70486182588164 0.0 1.6427123776302557
  endloop
endfacet
facet normal -0.4824885442449029 0.0 0.8759022803215176
  outer loop
    vertex 9.70486182588164 4.999999999999999 1.6427123776302557
    vertex 9.946660588206308 0.0 1.820643678990281
    vertex 9.946660588206308 4.999999999999999 1.820643678990281
  endloop
endfacet
facet normal -1.0 0.0 0.0
  outer loop
    vertex 0.0 4.999999999999999 2.4500000000000006
    vertex 0.0 0.0 0.0
    vertex 0.0 0.0 2.4500000000000006
  endloop
endfacet
facet normal -1.0 0.0 0.0
  outer loop
    vertex 0.0 0.0 0.0
    vertex 0.0 4.999999999999999 2.4500000000000006
    vertex 0.0 5.0 0.0
  endloop
endfacet
facet normal 0.8759022803215181 0.0 0.48248854424490245
  outer loop
    vertex 8.142712377630254 4.999999999999999 2.095138174118363
    vertex 8.033426063113227 0.0 2.374749852924344
    vertex 8.142712377630254 0.0 2.095138174118363
  endloop
endfacet
facet normal 0.9709338581624133 0.0 0.23934795397882777
  outer loop
    vertex 8.033426063113227 0.0 2.374749852924344
    vertex 8.142712377630254 4.999999999999999 2.095138174118363
    vertex 8.033426063113227 4.999999999999999 2.374749852924344
  endloop
endfacet
endsolid Shaft Adapter
